<svg width="24" height="24" viewBox="0 0 24 24" fill="none" xmlns="http://www.w3.org/2000/svg">
<path d="M18.1643 21.1976C17.0658 22.253 15.8665 22.0864 14.712 21.5864C13.4903 21.0754 12.3695 21.0532 11.0805 21.5864C9.46647 22.2752 8.61462 22.0752 7.65069 21.1976C2.18095 15.6094 2.98796 7.09936 9.19746 6.78828C10.7106 6.86605 11.7642 7.6104 12.6497 7.67706C13.9723 7.41043 15.2388 6.64386 16.6511 6.74385C18.3436 6.87716 19.6214 7.54374 20.462 8.74359C16.9649 10.8211 17.7944 15.3872 21 16.6648C20.3611 18.3313 19.5317 19.9866 18.153 21.2087L18.1643 21.1976ZM12.5376 6.72163C12.3695 4.24416 14.3982 2.19997 16.7296 2C17.0546 4.8663 14.1068 6.99937 12.5376 6.72163Z" fill="black"/>
</svg>
