<svg width="24" height="24" viewBox="0 0 24 24" fill="none" xmlns="http://www.w3.org/2000/svg">
<path opacity="0.987" fill-rule="evenodd" clip-rule="evenodd" d="M11.0112 3.32624C11.9174 3.22499 12.4537 3.22499 13.4274 3.32624C15.1511 3.58136 16.749 4.3781 17.9899 5.60124C17.1513 6.39391 16.3238 7.19816 15.5074 8.01374C13.9441 6.68874 12.1991 6.38291 10.2724 7.09624C8.8591 7.74624 7.87494 8.79958 7.31994 10.2562C6.41299 9.58103 5.51785 8.89009 4.63494 8.18374C4.57358 8.15145 4.5035 8.13962 4.43494 8.14999C5.83744 5.44583 8.0291 3.83749 11.0099 3.32499" fill="#F44336"/>
<path opacity="0.997" fill-rule="evenodd" clip-rule="evenodd" d="M4.43245 8.14998C4.50328 8.13915 4.57037 8.1504 4.6337 8.18373C5.51661 8.89008 6.41175 9.58102 7.3187 10.2562C7.17598 10.8238 7.08601 11.4034 7.04995 11.9875C7.08078 12.5525 7.17037 13.1071 7.3187 13.6512L4.49995 15.895C3.27245 13.33 3.24995 10.7483 4.43245 8.14998Z" fill="#FFC107"/>
<path opacity="0.999" fill-rule="evenodd" clip-rule="evenodd" d="M17.8562 18.6125C16.9785 17.8385 16.0597 17.1124 15.1037 16.4375C16.062 15.7608 16.6437 14.8325 16.8487 13.6525H12.1525V10.3912C14.8608 10.3687 17.5679 10.3917 20.2737 10.46C20.7871 13.2475 20.1941 15.7608 18.495 18C18.2929 18.2148 18.0789 18.4192 17.8562 18.6125Z" fill="#448AFF"/>
<path opacity="0.993" fill-rule="evenodd" clip-rule="evenodd" d="M7.31875 13.6525C8.34375 16.2 10.2229 17.3891 12.9562 17.22C13.7235 17.1311 14.4592 16.8631 15.1037 16.4375C16.0604 17.1141 16.9779 17.8391 17.8562 18.6125C16.4646 19.863 14.6901 20.6051 12.8225 20.7175C12.3982 20.7514 11.9718 20.7514 11.5475 20.7175C8.36583 20.3425 6.01667 18.735 4.5 15.895L7.31875 13.6525Z" fill="#43A047"/>
</svg>
