<svg width="525" height="32" viewBox="0 0 525 32" fill="none" xmlns="http://www.w3.org/2000/svg">
<path d="M12 21C12.2833 21 12.521 20.904 12.713 20.712C12.905 20.52 13.0007 20.2827 13 20C12.9993 19.7173 12.9033 19.48 12.712 19.288C12.5207 19.096 12.2833 19 12 19C11.7167 19 11.4793 19.096 11.288 19.288C11.0967 19.48 11.0007 19.7173 11 20C10.9993 20.2827 11.0953 20.5203 11.288 20.713C11.4807 20.9057 11.718 21.0013 12 21ZM11 17H13V11H11V17ZM12 26C10.6167 26 9.31667 25.7373 8.1 25.212C6.88334 24.6867 5.825 23.9743 4.925 23.075C4.025 22.1757 3.31267 21.1173 2.788 19.9C2.26333 18.6827 2.00067 17.3827 2 16C1.99933 14.6173 2.262 13.3173 2.788 12.1C3.314 10.8827 4.02633 9.82433 4.925 8.925C5.82367 8.02567 6.882 7.31333 8.1 6.788C9.318 6.26267 10.618 6 12 6C13.382 6 14.682 6.26267 15.9 6.788C17.118 7.31333 18.1763 8.02567 19.075 8.925C19.9737 9.82433 20.6863 10.8827 21.213 12.1C21.7397 13.3173 22.002 14.6173 22 16C21.998 17.3827 21.7353 18.6827 21.212 19.9C20.6887 21.1173 19.9763 22.1757 19.075 23.075C18.1737 23.9743 17.1153 24.687 15.9 25.213C14.6847 25.739 13.3847 26.0013 12 26Z" fill="#960505"/>
<path d="M36.8182 9.86364V21.5H35.4091V9.86364H36.8182ZM40.8026 16.25V21.5H39.4616V12.7727H40.7571V14.1364H40.8707C41.0753 13.6932 41.3859 13.3371 41.8026 13.0682C42.2192 12.7955 42.7571 12.6591 43.4162 12.6591C44.0071 12.6591 44.5241 12.7803 44.9673 13.0227C45.4105 13.2614 45.7552 13.625 46.0014 14.1136C46.2476 14.5985 46.3707 15.2121 46.3707 15.9545V21.5H45.0298V16.0455C45.0298 15.3598 44.8518 14.8258 44.4957 14.4432C44.1397 14.0568 43.651 13.8636 43.0298 13.8636C42.6018 13.8636 42.2192 13.9564 41.8821 14.142C41.5488 14.3277 41.2855 14.5985 41.0923 14.9545C40.8991 15.3106 40.8026 15.7424 40.8026 16.25ZM52.3665 21.6818C51.5483 21.6818 50.8438 21.4886 50.2528 21.1023C49.6619 20.7159 49.2074 20.1837 48.8892 19.5057C48.571 18.8277 48.4119 18.053 48.4119 17.1818C48.4119 16.2955 48.5748 15.5133 48.9006 14.8352C49.2301 14.1534 49.6884 13.6212 50.2756 13.2386C50.8665 12.8523 51.5559 12.6591 52.3438 12.6591C52.9574 12.6591 53.5104 12.7727 54.0028 13C54.4953 13.2273 54.8987 13.5455 55.2131 13.9545C55.5275 14.3636 55.7225 14.8409 55.7983 15.3864H54.4574C54.3551 14.9886 54.1278 14.6364 53.7756 14.3295C53.4271 14.0189 52.9574 13.8636 52.3665 13.8636C51.8438 13.8636 51.3854 14 50.9915 14.2727C50.6013 14.5417 50.2964 14.9223 50.0767 15.4148C49.8608 15.9034 49.7528 16.4773 49.7528 17.1364C49.7528 17.8106 49.8589 18.3977 50.071 18.8977C50.2869 19.3977 50.59 19.786 50.9801 20.0625C51.3741 20.339 51.8362 20.4773 52.3665 20.4773C52.715 20.4773 53.0312 20.4167 53.3153 20.2955C53.5994 20.1742 53.84 20 54.0369 19.7727C54.2339 19.5455 54.3741 19.2727 54.4574 18.9545H55.7983C55.7225 19.4697 55.535 19.9337 55.2358 20.3466C54.9403 20.7557 54.5483 21.0814 54.0597 21.3239C53.5748 21.5625 53.0104 21.6818 52.3665 21.6818ZM61.304 21.6818C60.5161 21.6818 59.8248 21.4943 59.2301 21.1193C58.6392 20.7443 58.1771 20.2197 57.8438 19.5455C57.5142 18.8712 57.3494 18.0833 57.3494 17.1818C57.3494 16.2727 57.5142 15.4792 57.8438 14.8011C58.1771 14.1231 58.6392 13.5966 59.2301 13.2216C59.8248 12.8466 60.5161 12.6591 61.304 12.6591C62.0919 12.6591 62.7813 12.8466 63.3722 13.2216C63.9669 13.5966 64.429 14.1231 64.7585 14.8011C65.0919 15.4792 65.2585 16.2727 65.2585 17.1818C65.2585 18.0833 65.0919 18.8712 64.7585 19.5455C64.429 20.2197 63.9669 20.7443 63.3722 21.1193C62.7813 21.4943 62.0919 21.6818 61.304 21.6818ZM61.304 20.4773C61.9025 20.4773 62.3949 20.3239 62.7812 20.017C63.1676 19.7102 63.4536 19.3068 63.6392 18.8068C63.8248 18.3068 63.9176 17.7652 63.9176 17.1818C63.9176 16.5985 63.8248 16.0549 63.6392 15.5511C63.4536 15.0473 63.1676 14.6402 62.7812 14.3295C62.3949 14.0189 61.9025 13.8636 61.304 13.8636C60.7055 13.8636 60.2131 14.0189 59.8267 14.3295C59.4403 14.6402 59.1544 15.0473 58.9688 15.5511C58.7831 16.0549 58.6903 16.5985 58.6903 17.1818C58.6903 17.7652 58.7831 18.3068 58.9688 18.8068C59.1544 19.3068 59.4403 19.7102 59.8267 20.017C60.2131 20.3239 60.7055 20.4773 61.304 20.4773ZM67.3054 21.5V12.7727H68.6009V14.0909H68.6918C68.8509 13.6591 69.1387 13.3087 69.5554 13.0398C69.9721 12.7708 70.4418 12.6364 70.9645 12.6364C71.063 12.6364 71.1861 12.6383 71.3338 12.642C71.4815 12.6458 71.5933 12.6515 71.669 12.6591V14.0227C71.6236 14.0114 71.5194 13.9943 71.3565 13.9716C71.1974 13.9451 71.0289 13.9318 70.8509 13.9318C70.4266 13.9318 70.0478 14.0208 69.7145 14.1989C69.3849 14.3731 69.1236 14.6155 68.9304 14.9261C68.741 15.233 68.6463 15.5833 68.6463 15.9773V21.5H67.3054ZM73.2585 21.5V12.7727H74.554V14.0909H74.6449C74.804 13.6591 75.0919 13.3087 75.5085 13.0398C75.9252 12.7708 76.3949 12.6364 76.9176 12.6364C77.0161 12.6364 77.1392 12.6383 77.2869 12.642C77.4347 12.6458 77.5464 12.6515 77.6222 12.6591V14.0227C77.5767 14.0114 77.4725 13.9943 77.3097 13.9716C77.1506 13.9451 76.982 13.9318 76.804 13.9318C76.3797 13.9318 76.0009 14.0208 75.6676 14.1989C75.3381 14.3731 75.0767 14.6155 74.8835 14.9261C74.6941 15.233 74.5994 15.5833 74.5994 15.9773V21.5H73.2585ZM82.6051 21.6818C81.7642 21.6818 81.0388 21.4962 80.429 21.125C79.8229 20.75 79.3551 20.2273 79.0256 19.5568C78.6998 18.8826 78.5369 18.0985 78.5369 17.2045C78.5369 16.3106 78.6998 15.5227 79.0256 14.8409C79.3551 14.1553 79.8134 13.6212 80.4006 13.2386C80.9915 12.8523 81.6809 12.6591 82.4688 12.6591C82.9233 12.6591 83.3722 12.7348 83.8153 12.8864C84.2585 13.0379 84.6619 13.2841 85.0256 13.625C85.3892 13.9621 85.679 14.4091 85.8949 14.9659C86.1108 15.5227 86.2188 16.2083 86.2188 17.0227V17.5909H79.4915V16.4318H84.8551C84.8551 15.9394 84.7566 15.5 84.5597 15.1136C84.3665 14.7273 84.09 14.4223 83.7301 14.1989C83.3741 13.9754 82.9536 13.8636 82.4688 13.8636C81.9347 13.8636 81.4725 13.9962 81.0824 14.2614C80.696 14.5227 80.3987 14.8636 80.1903 15.2841C79.982 15.7045 79.8778 16.1553 79.8778 16.6364V17.4091C79.8778 18.0682 79.9915 18.6269 80.2188 19.0852C80.4498 19.5398 80.7699 19.8864 81.179 20.125C81.5881 20.3598 82.0634 20.4773 82.6051 20.4773C82.9574 20.4773 83.2756 20.428 83.5597 20.3295C83.8475 20.2273 84.0956 20.0758 84.304 19.875C84.5123 19.6705 84.6733 19.4167 84.7869 19.1136L86.0824 19.4773C85.946 19.9167 85.7169 20.303 85.3949 20.6364C85.0729 20.9659 84.6752 21.2235 84.2017 21.4091C83.7282 21.5909 83.196 21.6818 82.6051 21.6818ZM91.804 21.6818C90.9858 21.6818 90.2813 21.4886 89.6903 21.1023C89.0994 20.7159 88.6449 20.1837 88.3267 19.5057C88.0085 18.8277 87.8494 18.053 87.8494 17.1818C87.8494 16.2955 88.0123 15.5133 88.3381 14.8352C88.6676 14.1534 89.1259 13.6212 89.7131 13.2386C90.304 12.8523 90.9934 12.6591 91.7812 12.6591C92.3949 12.6591 92.9479 12.7727 93.4403 13C93.9328 13.2273 94.3362 13.5455 94.6506 13.9545C94.965 14.3636 95.16 14.8409 95.2358 15.3864H93.8949C93.7926 14.9886 93.5653 14.6364 93.2131 14.3295C92.8646 14.0189 92.3949 13.8636 91.804 13.8636C91.2813 13.8636 90.8229 14 90.429 14.2727C90.0388 14.5417 89.7339 14.9223 89.5142 15.4148C89.2983 15.9034 89.1903 16.4773 89.1903 17.1364C89.1903 17.8106 89.2964 18.3977 89.5085 18.8977C89.7244 19.3977 90.0275 19.786 90.4176 20.0625C90.8116 20.339 91.2737 20.4773 91.804 20.4773C92.1525 20.4773 92.4688 20.4167 92.7528 20.2955C93.0369 20.1742 93.2775 20 93.4744 19.7727C93.6714 19.5455 93.8116 19.2727 93.8949 18.9545H95.2358C95.16 19.4697 94.9725 19.9337 94.6733 20.3466C94.3778 20.7557 93.9858 21.0814 93.4972 21.3239C93.0123 21.5625 92.4479 21.6818 91.804 21.6818ZM100.991 12.7727V13.9091H96.4688V12.7727H100.991ZM97.7869 10.6818H99.1278V19C99.1278 19.3788 99.1828 19.6629 99.2926 19.8523C99.4063 20.0379 99.5502 20.1629 99.7244 20.2273C99.9025 20.2879 100.09 20.3182 100.287 20.3182C100.435 20.3182 100.556 20.3106 100.651 20.2955C100.745 20.2765 100.821 20.2614 100.878 20.25L101.151 21.4545C101.06 21.4886 100.933 21.5227 100.77 21.5568C100.607 21.5947 100.401 21.6136 100.151 21.6136C99.7718 21.6136 99.4006 21.5322 99.0369 21.3693C98.6771 21.2064 98.3778 20.9583 98.1392 20.625C97.9044 20.2917 97.7869 19.8712 97.7869 19.3636V10.6818ZM107.509 21.5V12.7727H108.804V14.1364H108.918C109.099 13.6705 109.393 13.3087 109.798 13.0511C110.204 12.7898 110.69 12.6591 111.259 12.6591C111.834 12.6591 112.313 12.7898 112.696 13.0511C113.082 13.3087 113.384 13.6705 113.599 14.1364H113.69C113.914 13.6856 114.249 13.3277 114.696 13.0625C115.143 12.7936 115.679 12.6591 116.304 12.6591C117.084 12.6591 117.723 12.9034 118.219 13.392C118.715 13.8769 118.963 14.6326 118.963 15.6591V21.5H117.622V15.6591C117.622 15.0152 117.446 14.5549 117.094 14.2784C116.741 14.0019 116.327 13.8636 115.849 13.8636C115.236 13.8636 114.76 14.0492 114.423 14.4205C114.086 14.7879 113.918 15.2538 113.918 15.8182V21.5H112.554V15.5227C112.554 15.0265 112.393 14.6269 112.071 14.3239C111.749 14.017 111.334 13.8636 110.827 13.8636C110.478 13.8636 110.152 13.9564 109.849 14.142C109.55 14.3277 109.308 14.5852 109.122 14.9148C108.94 15.2405 108.849 15.6174 108.849 16.0455V21.5H107.509ZM123.983 21.7045C123.43 21.7045 122.928 21.6004 122.477 21.392C122.027 21.1799 121.669 20.875 121.403 20.4773C121.138 20.0758 121.006 19.5909 121.006 19.0227C121.006 18.5227 121.104 18.1174 121.301 17.8068C121.498 17.4924 121.761 17.2462 122.091 17.0682C122.42 16.8902 122.784 16.7576 123.182 16.6705C123.583 16.5795 123.987 16.5076 124.392 16.4545C124.922 16.3864 125.352 16.3352 125.682 16.3011C126.015 16.2633 126.258 16.2008 126.409 16.1136C126.564 16.0265 126.642 15.875 126.642 15.6591V15.6136C126.642 15.053 126.489 14.6174 126.182 14.3068C125.879 13.9962 125.419 13.8409 124.801 13.8409C124.161 13.8409 123.659 13.9811 123.295 14.2614C122.932 14.5417 122.676 14.8409 122.528 15.1591L121.256 14.7045C121.483 14.1742 121.786 13.7614 122.165 13.4659C122.547 13.1667 122.964 12.9583 123.415 12.8409C123.869 12.7197 124.316 12.6591 124.756 12.6591C125.036 12.6591 125.358 12.6932 125.722 12.7614C126.089 12.8258 126.443 12.9602 126.784 13.1648C127.129 13.3693 127.415 13.678 127.642 14.0909C127.869 14.5038 127.983 15.0568 127.983 15.75V21.5H126.642V20.3182H126.574C126.483 20.5076 126.331 20.7102 126.119 20.9261C125.907 21.142 125.625 21.3258 125.273 21.4773C124.92 21.6288 124.491 21.7045 123.983 21.7045ZM124.188 20.5C124.718 20.5 125.165 20.3958 125.528 20.1875C125.896 19.9792 126.172 19.7102 126.358 19.3807C126.547 19.0511 126.642 18.7045 126.642 18.3409V17.1136C126.585 17.1818 126.46 17.2443 126.267 17.3011C126.078 17.3542 125.858 17.4015 125.608 17.4432C125.362 17.4811 125.121 17.5152 124.886 17.5455C124.655 17.572 124.468 17.5947 124.324 17.6136C123.975 17.6591 123.65 17.733 123.347 17.8352C123.047 17.9337 122.805 18.0833 122.619 18.2841C122.438 18.4811 122.347 18.75 122.347 19.0909C122.347 19.5568 122.519 19.9091 122.864 20.1477C123.212 20.3826 123.653 20.5 124.188 20.5ZM130.43 21.5V12.7727H131.771V21.5H130.43ZM131.112 11.3182C130.851 11.3182 130.625 11.2292 130.436 11.0511C130.25 10.8731 130.158 10.6591 130.158 10.4091C130.158 10.1591 130.25 9.94508 130.436 9.76705C130.625 9.58902 130.851 9.5 131.112 9.5C131.374 9.5 131.597 9.58902 131.783 9.76705C131.972 9.94508 132.067 10.1591 132.067 10.4091C132.067 10.6591 131.972 10.8731 131.783 11.0511C131.597 11.2292 131.374 11.3182 131.112 11.3182ZM135.568 9.86364V21.5H134.227V9.86364H135.568ZM145.092 21.7045C144.539 21.7045 144.037 21.6004 143.587 21.392C143.136 21.1799 142.778 20.875 142.513 20.4773C142.248 20.0758 142.115 19.5909 142.115 19.0227C142.115 18.5227 142.214 18.1174 142.411 17.8068C142.607 17.4924 142.871 17.2462 143.2 17.0682C143.53 16.8902 143.893 16.7576 144.291 16.6705C144.693 16.5795 145.096 16.5076 145.501 16.4545C146.032 16.3864 146.462 16.3352 146.791 16.3011C147.125 16.2633 147.367 16.2008 147.518 16.1136C147.674 16.0265 147.751 15.875 147.751 15.6591V15.6136C147.751 15.053 147.598 14.6174 147.291 14.3068C146.988 13.9962 146.528 13.8409 145.911 13.8409C145.27 13.8409 144.768 13.9811 144.405 14.2614C144.041 14.5417 143.786 14.8409 143.638 15.1591L142.365 14.7045C142.592 14.1742 142.895 13.7614 143.274 13.4659C143.657 13.1667 144.073 12.9583 144.524 12.8409C144.979 12.7197 145.426 12.6591 145.865 12.6591C146.145 12.6591 146.467 12.6932 146.831 12.7614C147.198 12.8258 147.553 12.9602 147.893 13.1648C148.238 13.3693 148.524 13.678 148.751 14.0909C148.979 14.5038 149.092 15.0568 149.092 15.75V21.5H147.751V20.3182H147.683C147.592 20.5076 147.441 20.7102 147.229 20.9261C147.017 21.142 146.734 21.3258 146.382 21.4773C146.03 21.6288 145.6 21.7045 145.092 21.7045ZM145.297 20.5C145.827 20.5 146.274 20.3958 146.638 20.1875C147.005 19.9792 147.282 19.7102 147.467 19.3807C147.657 19.0511 147.751 18.7045 147.751 18.3409V17.1136C147.695 17.1818 147.57 17.2443 147.376 17.3011C147.187 17.3542 146.967 17.4015 146.717 17.4432C146.471 17.4811 146.231 17.5152 145.996 17.5455C145.765 17.572 145.577 17.5947 145.433 17.6136C145.085 17.6591 144.759 17.733 144.456 17.8352C144.157 17.9337 143.914 18.0833 143.729 18.2841C143.547 18.4811 143.456 18.75 143.456 19.0909C143.456 19.5568 143.628 19.9091 143.973 20.1477C144.321 20.3826 144.763 20.5 145.297 20.5ZM154.835 21.6818C154.108 21.6818 153.466 21.4981 152.909 21.1307C152.352 20.7595 151.917 20.2367 151.602 19.5625C151.288 18.8845 151.131 18.0833 151.131 17.1591C151.131 16.2424 151.288 15.447 151.602 14.7727C151.917 14.0985 152.354 13.5777 152.915 13.2102C153.475 12.8428 154.123 12.6591 154.858 12.6591C155.426 12.6591 155.875 12.7538 156.205 12.9432C156.538 13.1288 156.792 13.3409 156.966 13.5795C157.144 13.8144 157.282 14.0076 157.381 14.1591H157.494V9.86364H158.835V21.5H157.54V20.1591H157.381C157.282 20.3182 157.142 20.5189 156.96 20.7614C156.778 21 156.519 21.214 156.182 21.4034C155.845 21.589 155.396 21.6818 154.835 21.6818ZM155.017 20.4773C155.555 20.4773 156.009 20.3371 156.381 20.0568C156.752 19.7727 157.034 19.3807 157.227 18.8807C157.42 18.3769 157.517 17.7955 157.517 17.1364C157.517 16.4848 157.422 15.9148 157.233 15.4261C157.044 14.9337 156.763 14.5511 156.392 14.2784C156.021 14.0019 155.563 13.8636 155.017 13.8636C154.449 13.8636 153.975 14.0095 153.597 14.3011C153.222 14.589 152.939 14.9811 152.75 15.4773C152.564 15.9697 152.472 16.5227 152.472 17.1364C152.472 17.7576 152.566 18.322 152.756 18.8295C152.949 19.3333 153.233 19.7348 153.608 20.0341C153.987 20.3295 154.456 20.4773 155.017 20.4773ZM164.773 21.6818C164.045 21.6818 163.403 21.4981 162.847 21.1307C162.29 20.7595 161.854 20.2367 161.54 19.5625C161.225 18.8845 161.068 18.0833 161.068 17.1591C161.068 16.2424 161.225 15.447 161.54 14.7727C161.854 14.0985 162.292 13.5777 162.852 13.2102C163.413 12.8428 164.061 12.6591 164.795 12.6591C165.364 12.6591 165.813 12.7538 166.142 12.9432C166.475 13.1288 166.729 13.3409 166.903 13.5795C167.081 13.8144 167.22 14.0076 167.318 14.1591H167.432V9.86364H168.773V21.5H167.477V20.1591H167.318C167.22 20.3182 167.08 20.5189 166.898 20.7614C166.716 21 166.456 21.214 166.119 21.4034C165.782 21.589 165.333 21.6818 164.773 21.6818ZM164.955 20.4773C165.492 20.4773 165.947 20.3371 166.318 20.0568C166.689 19.7727 166.972 19.3807 167.165 18.8807C167.358 18.3769 167.455 17.7955 167.455 17.1364C167.455 16.4848 167.36 15.9148 167.17 15.4261C166.981 14.9337 166.701 14.5511 166.33 14.2784C165.958 14.0019 165.5 13.8636 164.955 13.8636C164.386 13.8636 163.913 14.0095 163.534 14.3011C163.159 14.589 162.877 14.9811 162.688 15.4773C162.502 15.9697 162.409 16.5227 162.409 17.1364C162.409 17.7576 162.504 18.322 162.693 18.8295C162.886 19.3333 163.17 19.7348 163.545 20.0341C163.924 20.3295 164.394 20.4773 164.955 20.4773ZM171.415 21.5V12.7727H172.71V14.0909H172.801C172.96 13.6591 173.248 13.3087 173.665 13.0398C174.081 12.7708 174.551 12.6364 175.074 12.6364C175.172 12.6364 175.295 12.6383 175.443 12.642C175.591 12.6458 175.703 12.6515 175.778 12.6591V14.0227C175.733 14.0114 175.629 13.9943 175.466 13.9716C175.307 13.9451 175.138 13.9318 174.96 13.9318C174.536 13.9318 174.157 14.0208 173.824 14.1989C173.494 14.3731 173.233 14.6155 173.04 14.9261C172.85 15.233 172.756 15.5833 172.756 15.9773V21.5H171.415ZM180.761 21.6818C179.92 21.6818 179.195 21.4962 178.585 21.125C177.979 20.75 177.511 20.2273 177.182 19.5568C176.856 18.8826 176.693 18.0985 176.693 17.2045C176.693 16.3106 176.856 15.5227 177.182 14.8409C177.511 14.1553 177.97 13.6212 178.557 13.2386C179.148 12.8523 179.837 12.6591 180.625 12.6591C181.08 12.6591 181.528 12.7348 181.972 12.8864C182.415 13.0379 182.818 13.2841 183.182 13.625C183.545 13.9621 183.835 14.4091 184.051 14.9659C184.267 15.5227 184.375 16.2083 184.375 17.0227V17.5909H177.648V16.4318H183.011C183.011 15.9394 182.913 15.5 182.716 15.1136C182.523 14.7273 182.246 14.4223 181.886 14.1989C181.53 13.9754 181.11 13.8636 180.625 13.8636C180.091 13.8636 179.629 13.9962 179.239 14.2614C178.852 14.5227 178.555 14.8636 178.347 15.2841C178.138 15.7045 178.034 16.1553 178.034 16.6364V17.4091C178.034 18.0682 178.148 18.6269 178.375 19.0852C178.606 19.5398 178.926 19.8864 179.335 20.125C179.744 20.3598 180.22 20.4773 180.761 20.4773C181.114 20.4773 181.432 20.428 181.716 20.3295C182.004 20.2273 182.252 20.0758 182.46 19.875C182.669 19.6705 182.83 19.4167 182.943 19.1136L184.239 19.4773C184.102 19.9167 183.873 20.303 183.551 20.6364C183.229 20.9659 182.831 21.2235 182.358 21.4091C181.884 21.5909 181.352 21.6818 180.761 21.6818ZM192.597 14.7273L191.392 15.0682C191.316 14.8674 191.205 14.6723 191.057 14.483C190.913 14.2898 190.716 14.1307 190.466 14.0057C190.216 13.8807 189.896 13.8182 189.506 13.8182C188.972 13.8182 188.527 13.9413 188.17 14.1875C187.818 14.4299 187.642 14.7386 187.642 15.1136C187.642 15.447 187.763 15.7102 188.006 15.9034C188.248 16.0966 188.627 16.2576 189.142 16.3864L190.438 16.7045C191.218 16.8939 191.799 17.1837 192.182 17.5739C192.564 17.9602 192.756 18.4583 192.756 19.0682C192.756 19.5682 192.612 20.0152 192.324 20.4091C192.04 20.803 191.642 21.1136 191.131 21.3409C190.619 21.5682 190.025 21.6818 189.347 21.6818C188.456 21.6818 187.72 21.4886 187.136 21.1023C186.553 20.7159 186.184 20.1515 186.028 19.4091L187.301 19.0909C187.422 19.5606 187.652 19.9129 187.989 20.1477C188.33 20.3826 188.775 20.5 189.324 20.5C189.949 20.5 190.445 20.3674 190.812 20.1023C191.184 19.8333 191.369 19.5114 191.369 19.1364C191.369 18.8333 191.263 18.5795 191.051 18.375C190.839 18.1667 190.513 18.0114 190.074 17.9091L188.619 17.5682C187.82 17.3788 187.233 17.0852 186.858 16.6875C186.487 16.286 186.301 15.7841 186.301 15.1818C186.301 14.6894 186.439 14.2538 186.716 13.875C186.996 13.4962 187.377 13.1989 187.858 12.983C188.343 12.767 188.892 12.6591 189.506 12.6591C190.369 12.6591 191.047 12.8485 191.54 13.2273C192.036 13.6061 192.388 14.1061 192.597 14.7273ZM200.956 14.7273L199.751 15.0682C199.676 14.8674 199.564 14.6723 199.416 14.483C199.272 14.2898 199.075 14.1307 198.825 14.0057C198.575 13.8807 198.255 13.8182 197.865 13.8182C197.331 13.8182 196.886 13.9413 196.53 14.1875C196.178 14.4299 196.001 14.7386 196.001 15.1136C196.001 15.447 196.123 15.7102 196.365 15.9034C196.607 16.0966 196.986 16.2576 197.501 16.3864L198.797 16.7045C199.577 16.8939 200.159 17.1837 200.541 17.5739C200.924 17.9602 201.115 18.4583 201.115 19.0682C201.115 19.5682 200.971 20.0152 200.683 20.4091C200.399 20.803 200.001 21.1136 199.49 21.3409C198.979 21.5682 198.384 21.6818 197.706 21.6818C196.816 21.6818 196.079 21.4886 195.496 21.1023C194.912 20.7159 194.543 20.1515 194.388 19.4091L195.661 19.0909C195.782 19.5606 196.011 19.9129 196.348 20.1477C196.689 20.3826 197.134 20.5 197.683 20.5C198.308 20.5 198.804 20.3674 199.172 20.1023C199.543 19.8333 199.729 19.5114 199.729 19.1364C199.729 18.8333 199.623 18.5795 199.411 18.375C199.198 18.1667 198.873 18.0114 198.433 17.9091L196.979 17.5682C196.179 17.3788 195.592 17.0852 195.217 16.6875C194.846 16.286 194.661 15.7841 194.661 15.1818C194.661 14.6894 194.799 14.2538 195.075 13.875C195.356 13.4962 195.736 13.1989 196.217 12.983C196.702 12.767 197.251 12.6591 197.865 12.6591C198.729 12.6591 199.407 12.8485 199.899 13.2273C200.395 13.6061 200.748 14.1061 200.956 14.7273ZM204.111 21.5909C203.83 21.5909 203.59 21.4905 203.389 21.2898C203.188 21.089 203.088 20.8485 203.088 20.5682C203.088 20.2879 203.188 20.0473 203.389 19.8466C203.59 19.6458 203.83 19.5455 204.111 19.5455C204.391 19.5455 204.632 19.6458 204.832 19.8466C205.033 20.0473 205.134 20.2879 205.134 20.5682C205.134 20.7538 205.086 20.9242 204.991 21.0795C204.901 21.2348 204.777 21.3598 204.622 21.4545C204.471 21.5455 204.3 21.5909 204.111 21.5909ZM212.222 21.5V9.86364H216.153C217.066 9.86364 217.813 10.0284 218.392 10.358C218.975 10.6837 219.407 11.125 219.688 11.6818C219.968 12.2386 220.108 12.8598 220.108 13.5455C220.108 14.2311 219.968 14.8542 219.688 15.4148C219.411 15.9754 218.983 16.4223 218.403 16.7557C217.824 17.0852 217.081 17.25 216.176 17.25H213.358V16H216.131C216.756 16 217.258 15.892 217.636 15.6761C218.015 15.4602 218.29 15.1686 218.46 14.8011C218.634 14.4299 218.722 14.0114 218.722 13.5455C218.722 13.0795 218.634 12.6629 218.46 12.2955C218.29 11.928 218.013 11.6402 217.631 11.4318C217.248 11.2197 216.741 11.1136 216.108 11.1136H213.631V21.5H212.222ZM223.537 9.86364V21.5H222.196V9.86364H223.537ZM229.652 21.6818C228.811 21.6818 228.086 21.4962 227.476 21.125C226.87 20.75 226.402 20.2273 226.072 19.5568C225.747 18.8826 225.584 18.0985 225.584 17.2045C225.584 16.3106 225.747 15.5227 226.072 14.8409C226.402 14.1553 226.86 13.6212 227.447 13.2386C228.038 12.8523 228.728 12.6591 229.516 12.6591C229.97 12.6591 230.419 12.7348 230.862 12.8864C231.305 13.0379 231.709 13.2841 232.072 13.625C232.436 13.9621 232.726 14.4091 232.942 14.9659C233.158 15.5227 233.266 16.2083 233.266 17.0227V17.5909H226.538V16.4318H231.902C231.902 15.9394 231.804 15.5 231.607 15.1136C231.413 14.7273 231.137 14.4223 230.777 14.1989C230.421 13.9754 230 13.8636 229.516 13.8636C228.982 13.8636 228.519 13.9962 228.129 14.2614C227.743 14.5227 227.446 14.8636 227.237 15.2841C227.029 15.7045 226.925 16.1553 226.925 16.6364V17.4091C226.925 18.0682 227.038 18.6269 227.266 19.0852C227.497 19.5398 227.817 19.8864 228.226 20.125C228.635 20.3598 229.11 20.4773 229.652 20.4773C230.004 20.4773 230.322 20.428 230.607 20.3295C230.894 20.2273 231.143 20.0758 231.351 19.875C231.559 19.6705 231.72 19.4167 231.834 19.1136L233.129 19.4773C232.993 19.9167 232.764 20.303 232.442 20.6364C232.12 20.9659 231.722 21.2235 231.249 21.4091C230.775 21.5909 230.243 21.6818 229.652 21.6818ZM237.874 21.7045C237.321 21.7045 236.819 21.6004 236.368 21.392C235.917 21.1799 235.559 20.875 235.294 20.4773C235.029 20.0758 234.896 19.5909 234.896 19.0227C234.896 18.5227 234.995 18.1174 235.192 17.8068C235.389 17.4924 235.652 17.2462 235.982 17.0682C236.311 16.8902 236.675 16.7576 237.072 16.6705C237.474 16.5795 237.877 16.5076 238.283 16.4545C238.813 16.3864 239.243 16.3352 239.572 16.3011C239.906 16.2633 240.148 16.2008 240.3 16.1136C240.455 16.0265 240.533 15.875 240.533 15.6591V15.6136C240.533 15.053 240.379 14.6174 240.072 14.3068C239.769 13.9962 239.309 13.8409 238.692 13.8409C238.052 13.8409 237.55 13.9811 237.186 14.2614C236.822 14.5417 236.567 14.8409 236.419 15.1591L235.146 14.7045C235.374 14.1742 235.677 13.7614 236.055 13.4659C236.438 13.1667 236.855 12.9583 237.305 12.8409C237.76 12.7197 238.207 12.6591 238.646 12.6591C238.927 12.6591 239.249 12.6932 239.612 12.7614C239.98 12.8258 240.334 12.9602 240.675 13.1648C241.019 13.3693 241.305 13.678 241.533 14.0909C241.76 14.5038 241.874 15.0568 241.874 15.75V21.5H240.533V20.3182H240.464C240.374 20.5076 240.222 20.7102 240.01 20.9261C239.798 21.142 239.516 21.3258 239.163 21.4773C238.811 21.6288 238.381 21.7045 237.874 21.7045ZM238.078 20.5C238.608 20.5 239.055 20.3958 239.419 20.1875C239.786 19.9792 240.063 19.7102 240.249 19.3807C240.438 19.0511 240.533 18.7045 240.533 18.3409V17.1136C240.476 17.1818 240.351 17.2443 240.158 17.3011C239.968 17.3542 239.749 17.4015 239.499 17.4432C239.252 17.4811 239.012 17.5152 238.777 17.5455C238.546 17.572 238.358 17.5947 238.214 17.6136C237.866 17.6591 237.54 17.733 237.237 17.8352C236.938 17.9337 236.696 18.0833 236.51 18.2841C236.328 18.4811 236.237 18.75 236.237 19.0909C236.237 19.5568 236.41 19.9091 236.754 20.1477C237.103 20.3826 237.544 20.5 238.078 20.5ZM250.503 14.7273L249.298 15.0682C249.223 14.8674 249.111 14.6723 248.963 14.483C248.819 14.2898 248.622 14.1307 248.372 14.0057C248.122 13.8807 247.802 13.8182 247.412 13.8182C246.878 13.8182 246.433 13.9413 246.077 14.1875C245.724 14.4299 245.548 14.7386 245.548 15.1136C245.548 15.447 245.67 15.7102 245.912 15.9034C246.154 16.0966 246.533 16.2576 247.048 16.3864L248.344 16.7045C249.124 16.8939 249.705 17.1837 250.088 17.5739C250.471 17.9602 250.662 18.4583 250.662 19.0682C250.662 19.5682 250.518 20.0152 250.23 20.4091C249.946 20.803 249.548 21.1136 249.037 21.3409C248.526 21.5682 247.931 21.6818 247.253 21.6818C246.363 21.6818 245.626 21.4886 245.043 21.1023C244.459 20.7159 244.09 20.1515 243.935 19.4091L245.207 19.0909C245.329 19.5606 245.558 19.9129 245.895 20.1477C246.236 20.3826 246.681 20.5 247.23 20.5C247.855 20.5 248.351 20.3674 248.719 20.1023C249.09 19.8333 249.276 19.5114 249.276 19.1364C249.276 18.8333 249.17 18.5795 248.957 18.375C248.745 18.1667 248.42 18.0114 247.98 17.9091L246.526 17.5682C245.726 17.3788 245.139 17.0852 244.764 16.6875C244.393 16.286 244.207 15.7841 244.207 15.1818C244.207 14.6894 244.346 14.2538 244.622 13.875C244.902 13.4962 245.283 13.1989 245.764 12.983C246.249 12.767 246.798 12.6591 247.412 12.6591C248.276 12.6591 248.954 12.8485 249.446 13.2273C249.942 13.6061 250.295 14.1061 250.503 14.7273ZM256.339 21.6818C255.499 21.6818 254.773 21.4962 254.163 21.125C253.557 20.75 253.089 20.2273 252.76 19.5568C252.434 18.8826 252.271 18.0985 252.271 17.2045C252.271 16.3106 252.434 15.5227 252.76 14.8409C253.089 14.1553 253.548 13.6212 254.135 13.2386C254.726 12.8523 255.415 12.6591 256.203 12.6591C256.658 12.6591 257.107 12.7348 257.55 12.8864C257.993 13.0379 258.396 13.2841 258.76 13.625C259.124 13.9621 259.413 14.4091 259.629 14.9659C259.845 15.5227 259.953 16.2083 259.953 17.0227V17.5909H253.226V16.4318H258.589C258.589 15.9394 258.491 15.5 258.294 15.1136C258.101 14.7273 257.824 14.4223 257.464 14.1989C257.108 13.9754 256.688 13.8636 256.203 13.8636C255.669 13.8636 255.207 13.9962 254.817 14.2614C254.43 14.5227 254.133 14.8636 253.925 15.2841C253.716 15.7045 253.612 16.1553 253.612 16.6364V17.4091C253.612 18.0682 253.726 18.6269 253.953 19.0852C254.184 19.5398 254.504 19.8864 254.913 20.125C255.322 20.3598 255.798 20.4773 256.339 20.4773C256.692 20.4773 257.01 20.428 257.294 20.3295C257.582 20.2273 257.83 20.0758 258.038 19.875C258.247 19.6705 258.408 19.4167 258.521 19.1136L259.817 19.4773C259.68 19.9167 259.451 20.303 259.129 20.6364C258.807 20.9659 258.41 21.2235 257.936 21.4091C257.463 21.5909 256.93 21.6818 256.339 21.6818ZM270.152 21.6818C269.311 21.6818 268.586 21.4962 267.976 21.125C267.37 20.75 266.902 20.2273 266.572 19.5568C266.247 18.8826 266.084 18.0985 266.084 17.2045C266.084 16.3106 266.247 15.5227 266.572 14.8409C266.902 14.1553 267.36 13.6212 267.947 13.2386C268.538 12.8523 269.228 12.6591 270.016 12.6591C270.47 12.6591 270.919 12.7348 271.362 12.8864C271.805 13.0379 272.209 13.2841 272.572 13.625C272.936 13.9621 273.226 14.4091 273.442 14.9659C273.658 15.5227 273.766 16.2083 273.766 17.0227V17.5909H267.038V16.4318H272.402C272.402 15.9394 272.304 15.5 272.107 15.1136C271.913 14.7273 271.637 14.4223 271.277 14.1989C270.921 13.9754 270.5 13.8636 270.016 13.8636C269.482 13.8636 269.019 13.9962 268.629 14.2614C268.243 14.5227 267.946 14.8636 267.737 15.2841C267.529 15.7045 267.425 16.1553 267.425 16.6364V17.4091C267.425 18.0682 267.538 18.6269 267.766 19.0852C267.997 19.5398 268.317 19.8864 268.726 20.125C269.135 20.3598 269.61 20.4773 270.152 20.4773C270.504 20.4773 270.822 20.428 271.107 20.3295C271.394 20.2273 271.643 20.0758 271.851 19.875C272.059 19.6705 272.22 19.4167 272.334 19.1136L273.629 19.4773C273.493 19.9167 273.264 20.303 272.942 20.6364C272.62 20.9659 272.222 21.2235 271.749 21.4091C271.275 21.5909 270.743 21.6818 270.152 21.6818ZM277.146 16.25V21.5H275.805V12.7727H277.101V14.1364H277.214C277.419 13.6932 277.73 13.3371 278.146 13.0682C278.563 12.7955 279.101 12.6591 279.76 12.6591C280.351 12.6591 280.868 12.7803 281.311 13.0227C281.754 13.2614 282.099 13.625 282.345 14.1136C282.591 14.5985 282.714 15.2121 282.714 15.9545V21.5H281.374V16.0455C281.374 15.3598 281.196 14.8258 280.839 14.4432C280.483 14.0568 279.995 13.8636 279.374 13.8636C278.946 13.8636 278.563 13.9564 278.226 14.142C277.893 14.3277 277.629 14.5985 277.436 14.9545C277.243 15.3106 277.146 15.7424 277.146 16.25ZM288.96 12.7727V13.9091H284.438V12.7727H288.96ZM285.756 10.6818H287.097V19C287.097 19.3788 287.152 19.6629 287.261 19.8523C287.375 20.0379 287.519 20.1629 287.693 20.2273C287.871 20.2879 288.059 20.3182 288.256 20.3182C288.403 20.3182 288.525 20.3106 288.619 20.2955C288.714 20.2765 288.79 20.2614 288.847 20.25L289.119 21.4545C289.028 21.4886 288.902 21.5227 288.739 21.5568C288.576 21.5947 288.369 21.6136 288.119 21.6136C287.741 21.6136 287.369 21.5322 287.006 21.3693C286.646 21.2064 286.347 20.9583 286.108 20.625C285.873 20.2917 285.756 19.8712 285.756 19.3636V10.6818ZM294.543 21.6818C293.702 21.6818 292.976 21.4962 292.366 21.125C291.76 20.75 291.293 20.2273 290.963 19.5568C290.637 18.8826 290.474 18.0985 290.474 17.2045C290.474 16.3106 290.637 15.5227 290.963 14.8409C291.293 14.1553 291.751 13.6212 292.338 13.2386C292.929 12.8523 293.618 12.6591 294.406 12.6591C294.861 12.6591 295.31 12.7348 295.753 12.8864C296.196 13.0379 296.599 13.2841 296.963 13.625C297.327 13.9621 297.616 14.4091 297.832 14.9659C298.048 15.5227 298.156 16.2083 298.156 17.0227V17.5909H291.429V16.4318H296.793C296.793 15.9394 296.694 15.5 296.497 15.1136C296.304 14.7273 296.027 14.4223 295.668 14.1989C295.312 13.9754 294.891 13.8636 294.406 13.8636C293.872 13.8636 293.41 13.9962 293.02 14.2614C292.634 14.5227 292.336 14.8636 292.128 15.2841C291.92 15.7045 291.815 16.1553 291.815 16.6364V17.4091C291.815 18.0682 291.929 18.6269 292.156 19.0852C292.387 19.5398 292.707 19.8864 293.116 20.125C293.526 20.3598 294.001 20.4773 294.543 20.4773C294.895 20.4773 295.213 20.428 295.497 20.3295C295.785 20.2273 296.033 20.0758 296.241 19.875C296.45 19.6705 296.611 19.4167 296.724 19.1136L298.02 19.4773C297.884 19.9167 297.654 20.303 297.332 20.6364C297.01 20.9659 296.613 21.2235 296.139 21.4091C295.666 21.5909 295.134 21.6818 294.543 21.6818ZM300.196 21.5V12.7727H301.491V14.0909H301.582C301.741 13.6591 302.029 13.3087 302.446 13.0398C302.863 12.7708 303.332 12.6364 303.855 12.6364C303.954 12.6364 304.077 12.6383 304.224 12.642C304.372 12.6458 304.484 12.6515 304.56 12.6591V14.0227C304.514 14.0114 304.41 13.9943 304.247 13.9716C304.088 13.9451 303.92 13.9318 303.741 13.9318C303.317 13.9318 302.938 14.0208 302.605 14.1989C302.276 14.3731 302.014 14.6155 301.821 14.9261C301.632 15.233 301.537 15.5833 301.537 15.9773V21.5H300.196ZM311.513 24.7727C311.286 24.7727 311.083 24.7538 310.905 24.7159C310.727 24.6818 310.604 24.6477 310.536 24.6136L310.876 23.4318C311.202 23.5152 311.49 23.5455 311.74 23.5227C311.99 23.5 312.212 23.3883 312.405 23.1875C312.602 22.9905 312.782 22.6705 312.945 22.2273L313.195 21.5455L309.967 12.7727H311.422L313.831 19.7273H313.922L316.331 12.7727H317.786L314.081 22.7727C313.914 23.2235 313.708 23.5966 313.462 23.892C313.215 24.1913 312.929 24.4129 312.604 24.5568C312.282 24.7008 311.918 24.7727 311.513 24.7727ZM322.788 21.6818C322 21.6818 321.309 21.4943 320.714 21.1193C320.124 20.7443 319.661 20.2197 319.328 19.5455C318.999 18.8712 318.834 18.0833 318.834 17.1818C318.834 16.2727 318.999 15.4792 319.328 14.8011C319.661 14.1231 320.124 13.5966 320.714 13.2216C321.309 12.8466 322 12.6591 322.788 12.6591C323.576 12.6591 324.266 12.8466 324.857 13.2216C325.451 13.5966 325.913 14.1231 326.243 14.8011C326.576 15.4792 326.743 16.2727 326.743 17.1818C326.743 18.0833 326.576 18.8712 326.243 19.5455C325.913 20.2197 325.451 20.7443 324.857 21.1193C324.266 21.4943 323.576 21.6818 322.788 21.6818ZM322.788 20.4773C323.387 20.4773 323.879 20.3239 324.266 20.017C324.652 19.7102 324.938 19.3068 325.124 18.8068C325.309 18.3068 325.402 17.7652 325.402 17.1818C325.402 16.5985 325.309 16.0549 325.124 15.5511C324.938 15.0473 324.652 14.6402 324.266 14.3295C323.879 14.0189 323.387 13.8636 322.788 13.8636C322.19 13.8636 321.697 14.0189 321.311 14.3295C320.925 14.6402 320.639 15.0473 320.453 15.5511C320.268 16.0549 320.175 16.5985 320.175 17.1818C320.175 17.7652 320.268 18.3068 320.453 18.8068C320.639 19.3068 320.925 19.7102 321.311 20.017C321.697 20.3239 322.19 20.4773 322.788 20.4773ZM334.29 17.9318V12.7727H335.631V21.5H334.29V20.0227H334.199C333.994 20.4659 333.676 20.8428 333.244 21.1534C332.813 21.4602 332.267 21.6136 331.608 21.6136C331.062 21.6136 330.578 21.4943 330.153 21.2557C329.729 21.0133 329.396 20.6496 329.153 20.1648C328.911 19.6761 328.79 19.0606 328.79 18.3182V12.7727H330.131V18.2273C330.131 18.8636 330.309 19.3712 330.665 19.75C331.025 20.1288 331.483 20.3182 332.04 20.3182C332.373 20.3182 332.712 20.233 333.057 20.0625C333.405 19.892 333.697 19.6307 333.932 19.2784C334.17 18.9261 334.29 18.4773 334.29 17.9318ZM338.087 21.5V12.7727H339.382V14.0909H339.473C339.632 13.6591 339.92 13.3087 340.337 13.0398C340.753 12.7708 341.223 12.6364 341.746 12.6364C341.844 12.6364 341.967 12.6383 342.115 12.642C342.263 12.6458 342.375 12.6515 342.45 12.6591V14.0227C342.405 14.0114 342.301 13.9943 342.138 13.9716C341.979 13.9451 341.81 13.9318 341.632 13.9318C341.208 13.9318 340.829 14.0208 340.496 14.1989C340.166 14.3731 339.905 14.6155 339.712 14.9261C339.522 15.233 339.428 15.5833 339.428 15.9773V21.5H338.087ZM348.54 21.5V12.7727H349.835V14.0909H349.926C350.085 13.6591 350.373 13.3087 350.79 13.0398C351.206 12.7708 351.676 12.6364 352.199 12.6364C352.297 12.6364 352.42 12.6383 352.568 12.642C352.716 12.6458 352.828 12.6515 352.903 12.6591V14.0227C352.858 14.0114 352.754 13.9943 352.591 13.9716C352.432 13.9451 352.263 13.9318 352.085 13.9318C351.661 13.9318 351.282 14.0208 350.949 14.1989C350.619 14.3731 350.358 14.6155 350.165 14.9261C349.975 15.233 349.881 15.5833 349.881 15.9773V21.5H348.54ZM357.886 21.6818C357.045 21.6818 356.32 21.4962 355.71 21.125C355.104 20.75 354.636 20.2273 354.307 19.5568C353.981 18.8826 353.818 18.0985 353.818 17.2045C353.818 16.3106 353.981 15.5227 354.307 14.8409C354.636 14.1553 355.095 13.6212 355.682 13.2386C356.273 12.8523 356.962 12.6591 357.75 12.6591C358.205 12.6591 358.653 12.7348 359.097 12.8864C359.54 13.0379 359.943 13.2841 360.307 13.625C360.67 13.9621 360.96 14.4091 361.176 14.9659C361.392 15.5227 361.5 16.2083 361.5 17.0227V17.5909H354.773V16.4318H360.136C360.136 15.9394 360.038 15.5 359.841 15.1136C359.648 14.7273 359.371 14.4223 359.011 14.1989C358.655 13.9754 358.235 13.8636 357.75 13.8636C357.216 13.8636 356.754 13.9962 356.364 14.2614C355.977 14.5227 355.68 14.8636 355.472 15.2841C355.263 15.7045 355.159 16.1553 355.159 16.6364V17.4091C355.159 18.0682 355.273 18.6269 355.5 19.0852C355.731 19.5398 356.051 19.8864 356.46 20.125C356.869 20.3598 357.345 20.4773 357.886 20.4773C358.239 20.4773 358.557 20.428 358.841 20.3295C359.129 20.2273 359.377 20.0758 359.585 19.875C359.794 19.6705 359.955 19.4167 360.068 19.1136L361.364 19.4773C361.227 19.9167 360.998 20.303 360.676 20.6364C360.354 20.9659 359.956 21.2235 359.483 21.4091C359.009 21.5909 358.477 21.6818 357.886 21.6818ZM367.062 24.9545C366.415 24.9545 365.858 24.8712 365.392 24.7045C364.926 24.5417 364.538 24.3258 364.227 24.0568C363.92 23.7917 363.676 23.5076 363.494 23.2045L364.562 22.4545C364.684 22.6136 364.837 22.7955 365.023 23C365.208 23.2083 365.462 23.3883 365.784 23.5398C366.11 23.6951 366.536 23.7727 367.062 23.7727C367.767 23.7727 368.348 23.6023 368.807 23.2614C369.265 22.9205 369.494 22.3864 369.494 21.6591V19.8864H369.381C369.282 20.0455 369.142 20.2424 368.96 20.4773C368.782 20.7083 368.525 20.9148 368.188 21.0966C367.854 21.2746 367.403 21.3636 366.835 21.3636C366.131 21.3636 365.498 21.197 364.938 20.8636C364.381 20.5303 363.939 20.0455 363.614 19.4091C363.292 18.7727 363.131 18 363.131 17.0909C363.131 16.197 363.288 15.4186 363.602 14.7557C363.917 14.089 364.354 13.5739 364.915 13.2102C365.475 12.8428 366.123 12.6591 366.858 12.6591C367.426 12.6591 367.877 12.7538 368.21 12.9432C368.547 13.1288 368.805 13.3409 368.983 13.5795C369.165 13.8144 369.305 14.0076 369.403 14.1591H369.54V12.7727H370.835V21.75C370.835 22.5 370.665 23.1098 370.324 23.5795C369.987 24.053 369.532 24.3996 368.96 24.6193C368.392 24.8428 367.759 24.9545 367.062 24.9545ZM367.017 20.1591C367.555 20.1591 368.009 20.036 368.381 19.7898C368.752 19.5436 369.034 19.1894 369.227 18.7273C369.42 18.2652 369.517 17.7121 369.517 17.0682C369.517 16.4394 369.422 15.8845 369.233 15.4034C369.044 14.9223 368.763 14.5455 368.392 14.2727C368.021 14 367.563 13.8636 367.017 13.8636C366.449 13.8636 365.975 14.0076 365.597 14.2955C365.222 14.5833 364.939 14.9697 364.75 15.4545C364.564 15.9394 364.472 16.4773 364.472 17.0682C364.472 17.6742 364.566 18.2102 364.756 18.6761C364.949 19.1383 365.233 19.5019 365.608 19.767C365.987 20.0284 366.456 20.1591 367.017 20.1591ZM373.29 21.5V12.7727H374.631V21.5H373.29ZM373.972 11.3182C373.71 11.3182 373.485 11.2292 373.295 11.0511C373.11 10.8731 373.017 10.6591 373.017 10.4091C373.017 10.1591 373.11 9.94508 373.295 9.76705C373.485 9.58902 373.71 9.5 373.972 9.5C374.233 9.5 374.456 9.58902 374.642 9.76705C374.831 9.94508 374.926 10.1591 374.926 10.4091C374.926 10.6591 374.831 10.8731 374.642 11.0511C374.456 11.2292 374.233 11.3182 373.972 11.3182ZM383.268 14.7273L382.064 15.0682C381.988 14.8674 381.876 14.6723 381.729 14.483C381.585 14.2898 381.388 14.1307 381.138 14.0057C380.888 13.8807 380.568 13.8182 380.178 13.8182C379.643 13.8182 379.198 13.9413 378.842 14.1875C378.49 14.4299 378.314 14.7386 378.314 15.1136C378.314 15.447 378.435 15.7102 378.678 15.9034C378.92 16.0966 379.299 16.2576 379.814 16.3864L381.109 16.7045C381.89 16.8939 382.471 17.1837 382.854 17.5739C383.236 17.9602 383.428 18.4583 383.428 19.0682C383.428 19.5682 383.284 20.0152 382.996 20.4091C382.712 20.803 382.314 21.1136 381.803 21.3409C381.291 21.5682 380.696 21.6818 380.018 21.6818C379.128 21.6818 378.392 21.4886 377.808 21.1023C377.225 20.7159 376.856 20.1515 376.7 19.4091L377.973 19.0909C378.094 19.5606 378.323 19.9129 378.661 20.1477C379.001 20.3826 379.446 20.5 379.996 20.5C380.621 20.5 381.117 20.3674 381.484 20.1023C381.856 19.8333 382.041 19.5114 382.041 19.1364C382.041 18.8333 381.935 18.5795 381.723 18.375C381.511 18.1667 381.185 18.0114 380.746 17.9091L379.291 17.5682C378.492 17.3788 377.905 17.0852 377.53 16.6875C377.159 16.286 376.973 15.7841 376.973 15.1818C376.973 14.6894 377.111 14.2538 377.388 13.875C377.668 13.4962 378.049 13.1989 378.53 12.983C379.015 12.767 379.564 12.6591 380.178 12.6591C381.041 12.6591 381.719 12.8485 382.212 13.2273C382.708 13.6061 383.06 14.1061 383.268 14.7273ZM389.241 12.7727V13.9091H384.719V12.7727H389.241ZM386.037 10.6818H387.378V19C387.378 19.3788 387.433 19.6629 387.543 19.8523C387.656 20.0379 387.8 20.1629 387.974 20.2273C388.152 20.2879 388.34 20.3182 388.537 20.3182C388.685 20.3182 388.806 20.3106 388.901 20.2955C388.995 20.2765 389.071 20.2614 389.128 20.25L389.401 21.4545C389.31 21.4886 389.183 21.5227 389.02 21.5568C388.857 21.5947 388.651 21.6136 388.401 21.6136C388.022 21.6136 387.651 21.5322 387.287 21.3693C386.927 21.2064 386.628 20.9583 386.389 20.625C386.154 20.2917 386.037 19.8712 386.037 19.3636V10.6818ZM394.824 21.6818C393.983 21.6818 393.258 21.4962 392.648 21.125C392.042 20.75 391.574 20.2273 391.244 19.5568C390.919 18.8826 390.756 18.0985 390.756 17.2045C390.756 16.3106 390.919 15.5227 391.244 14.8409C391.574 14.1553 392.032 13.6212 392.619 13.2386C393.21 12.8523 393.9 12.6591 394.688 12.6591C395.142 12.6591 395.591 12.7348 396.034 12.8864C396.477 13.0379 396.881 13.2841 397.244 13.625C397.608 13.9621 397.898 14.4091 398.114 14.9659C398.33 15.5227 398.438 16.2083 398.438 17.0227V17.5909H391.71V16.4318H397.074C397.074 15.9394 396.975 15.5 396.778 15.1136C396.585 14.7273 396.309 14.4223 395.949 14.1989C395.593 13.9754 395.172 13.8636 394.688 13.8636C394.153 13.8636 393.691 13.9962 393.301 14.2614C392.915 14.5227 392.617 14.8636 392.409 15.2841C392.201 15.7045 392.097 16.1553 392.097 16.6364V17.4091C392.097 18.0682 392.21 18.6269 392.438 19.0852C392.669 19.5398 392.989 19.8864 393.398 20.125C393.807 20.3598 394.282 20.4773 394.824 20.4773C395.176 20.4773 395.494 20.428 395.778 20.3295C396.066 20.2273 396.314 20.0758 396.523 19.875C396.731 19.6705 396.892 19.4167 397.006 19.1136L398.301 19.4773C398.165 19.9167 397.936 20.303 397.614 20.6364C397.292 20.9659 396.894 21.2235 396.42 21.4091C395.947 21.5909 395.415 21.6818 394.824 21.6818ZM400.477 21.5V12.7727H401.773V14.0909H401.864C402.023 13.6591 402.311 13.3087 402.727 13.0398C403.144 12.7708 403.614 12.6364 404.136 12.6364C404.235 12.6364 404.358 12.6383 404.506 12.642C404.653 12.6458 404.765 12.6515 404.841 12.6591V14.0227C404.795 14.0114 404.691 13.9943 404.528 13.9716C404.369 13.9451 404.201 13.9318 404.023 13.9318C403.598 13.9318 403.22 14.0208 402.886 14.1989C402.557 14.3731 402.295 14.6155 402.102 14.9261C401.913 15.233 401.818 15.5833 401.818 15.9773V21.5H400.477ZM409.824 21.6818C408.983 21.6818 408.258 21.4962 407.648 21.125C407.042 20.75 406.574 20.2273 406.244 19.5568C405.919 18.8826 405.756 18.0985 405.756 17.2045C405.756 16.3106 405.919 15.5227 406.244 14.8409C406.574 14.1553 407.032 13.6212 407.619 13.2386C408.21 12.8523 408.9 12.6591 409.688 12.6591C410.142 12.6591 410.591 12.7348 411.034 12.8864C411.477 13.0379 411.881 13.2841 412.244 13.625C412.608 13.9621 412.898 14.4091 413.114 14.9659C413.33 15.5227 413.438 16.2083 413.438 17.0227V17.5909H406.71V16.4318H412.074C412.074 15.9394 411.975 15.5 411.778 15.1136C411.585 14.7273 411.309 14.4223 410.949 14.1989C410.593 13.9754 410.172 13.8636 409.688 13.8636C409.153 13.8636 408.691 13.9962 408.301 14.2614C407.915 14.5227 407.617 14.8636 407.409 15.2841C407.201 15.7045 407.097 16.1553 407.097 16.6364V17.4091C407.097 18.0682 407.21 18.6269 407.438 19.0852C407.669 19.5398 407.989 19.8864 408.398 20.125C408.807 20.3598 409.282 20.4773 409.824 20.4773C410.176 20.4773 410.494 20.428 410.778 20.3295C411.066 20.2273 411.314 20.0758 411.523 19.875C411.731 19.6705 411.892 19.4167 412.006 19.1136L413.301 19.4773C413.165 19.9167 412.936 20.303 412.614 20.6364C412.292 20.9659 411.894 21.2235 411.42 21.4091C410.947 21.5909 410.415 21.6818 409.824 21.6818ZM418.773 21.6818C418.045 21.6818 417.403 21.4981 416.847 21.1307C416.29 20.7595 415.854 20.2367 415.54 19.5625C415.225 18.8845 415.068 18.0833 415.068 17.1591C415.068 16.2424 415.225 15.447 415.54 14.7727C415.854 14.0985 416.292 13.5777 416.852 13.2102C417.413 12.8428 418.061 12.6591 418.795 12.6591C419.364 12.6591 419.813 12.7538 420.142 12.9432C420.475 13.1288 420.729 13.3409 420.903 13.5795C421.081 13.8144 421.22 14.0076 421.318 14.1591H421.432V9.86364H422.773V21.5H421.477V20.1591H421.318C421.22 20.3182 421.08 20.5189 420.898 20.7614C420.716 21 420.456 21.214 420.119 21.4034C419.782 21.589 419.333 21.6818 418.773 21.6818ZM418.955 20.4773C419.492 20.4773 419.947 20.3371 420.318 20.0568C420.689 19.7727 420.972 19.3807 421.165 18.8807C421.358 18.3769 421.455 17.7955 421.455 17.1364C421.455 16.4848 421.36 15.9148 421.17 15.4261C420.981 14.9337 420.701 14.5511 420.33 14.2784C419.958 14.0019 419.5 13.8636 418.955 13.8636C418.386 13.8636 417.913 14.0095 417.534 14.3011C417.159 14.589 416.877 14.9811 416.688 15.4773C416.502 15.9697 416.409 16.5227 416.409 17.1364C416.409 17.7576 416.504 18.322 416.693 18.8295C416.886 19.3333 417.17 19.7348 417.545 20.0341C417.924 20.3295 418.394 20.4773 418.955 20.4773ZM429.915 21.5V12.7727H431.21V14.1364H431.324C431.506 13.6705 431.799 13.3087 432.205 13.0511C432.61 12.7898 433.097 12.6591 433.665 12.6591C434.241 12.6591 434.72 12.7898 435.102 13.0511C435.489 13.3087 435.79 13.6705 436.006 14.1364H436.097C436.32 13.6856 436.655 13.3277 437.102 13.0625C437.549 12.7936 438.085 12.6591 438.71 12.6591C439.491 12.6591 440.129 12.9034 440.625 13.392C441.121 13.8769 441.369 14.6326 441.369 15.6591V21.5H440.028V15.6591C440.028 15.0152 439.852 14.5549 439.5 14.2784C439.148 14.0019 438.733 13.8636 438.256 13.8636C437.642 13.8636 437.167 14.0492 436.83 14.4205C436.492 14.7879 436.324 15.2538 436.324 15.8182V21.5H434.96V15.5227C434.96 15.0265 434.799 14.6269 434.477 14.3239C434.155 14.017 433.741 13.8636 433.233 13.8636C432.884 13.8636 432.559 13.9564 432.256 14.142C431.956 14.3277 431.714 14.5852 431.528 14.9148C431.347 15.2405 431.256 15.6174 431.256 16.0455V21.5H429.915ZM446.389 21.7045C445.836 21.7045 445.334 21.6004 444.884 21.392C444.433 21.1799 444.075 20.875 443.81 20.4773C443.545 20.0758 443.412 19.5909 443.412 19.0227C443.412 18.5227 443.51 18.1174 443.707 17.8068C443.904 17.4924 444.168 17.2462 444.497 17.0682C444.827 16.8902 445.19 16.7576 445.588 16.6705C445.99 16.5795 446.393 16.5076 446.798 16.4545C447.329 16.3864 447.759 16.3352 448.088 16.3011C448.421 16.2633 448.664 16.2008 448.815 16.1136C448.971 16.0265 449.048 15.875 449.048 15.6591V15.6136C449.048 15.053 448.895 14.6174 448.588 14.3068C448.285 13.9962 447.825 13.8409 447.207 13.8409C446.567 13.8409 446.065 13.9811 445.702 14.2614C445.338 14.5417 445.082 14.8409 444.935 15.1591L443.662 14.7045C443.889 14.1742 444.192 13.7614 444.571 13.4659C444.954 13.1667 445.37 12.9583 445.821 12.8409C446.276 12.7197 446.723 12.6591 447.162 12.6591C447.442 12.6591 447.764 12.6932 448.128 12.7614C448.495 12.8258 448.849 12.9602 449.19 13.1648C449.535 13.3693 449.821 13.678 450.048 14.0909C450.276 14.5038 450.389 15.0568 450.389 15.75V21.5H449.048V20.3182H448.98C448.889 20.5076 448.738 20.7102 448.526 20.9261C448.313 21.142 448.031 21.3258 447.679 21.4773C447.327 21.6288 446.897 21.7045 446.389 21.7045ZM446.594 20.5C447.124 20.5 447.571 20.3958 447.935 20.1875C448.302 19.9792 448.579 19.7102 448.764 19.3807C448.954 19.0511 449.048 18.7045 449.048 18.3409V17.1136C448.991 17.1818 448.866 17.2443 448.673 17.3011C448.484 17.3542 448.264 17.4015 448.014 17.4432C447.768 17.4811 447.527 17.5152 447.293 17.5455C447.062 17.572 446.874 17.5947 446.73 17.6136C446.382 17.6591 446.056 17.733 445.753 17.8352C445.454 17.9337 445.211 18.0833 445.026 18.2841C444.844 18.4811 444.753 18.75 444.753 19.0909C444.753 19.5568 444.925 19.9091 445.27 20.1477C445.618 20.3826 446.06 20.5 446.594 20.5ZM452.837 21.5V12.7727H454.178V21.5H452.837ZM453.518 11.3182C453.257 11.3182 453.032 11.2292 452.842 11.0511C452.657 10.8731 452.564 10.6591 452.564 10.4091C452.564 10.1591 452.657 9.94508 452.842 9.76705C453.032 9.58902 453.257 9.5 453.518 9.5C453.78 9.5 454.003 9.58902 454.189 9.76705C454.378 9.94508 454.473 10.1591 454.473 10.4091C454.473 10.6591 454.378 10.8731 454.189 11.0511C454.003 11.2292 453.78 11.3182 453.518 11.3182ZM457.974 9.86364V21.5H456.634V9.86364H457.974ZM467.499 21.7045C466.946 21.7045 466.444 21.6004 465.993 21.392C465.542 21.1799 465.184 20.875 464.919 20.4773C464.654 20.0758 464.521 19.5909 464.521 19.0227C464.521 18.5227 464.62 18.1174 464.817 17.8068C465.014 17.4924 465.277 17.2462 465.607 17.0682C465.936 16.8902 466.3 16.7576 466.697 16.6705C467.099 16.5795 467.502 16.5076 467.908 16.4545C468.438 16.3864 468.868 16.3352 469.197 16.3011C469.531 16.2633 469.773 16.2008 469.925 16.1136C470.08 16.0265 470.158 15.875 470.158 15.6591V15.6136C470.158 15.053 470.004 14.6174 469.697 14.3068C469.394 13.9962 468.934 13.8409 468.317 13.8409C467.677 13.8409 467.175 13.9811 466.811 14.2614C466.447 14.5417 466.192 14.8409 466.044 15.1591L464.771 14.7045C464.999 14.1742 465.302 13.7614 465.68 13.4659C466.063 13.1667 466.48 12.9583 466.93 12.8409C467.385 12.7197 467.832 12.6591 468.271 12.6591C468.552 12.6591 468.874 12.6932 469.237 12.7614C469.605 12.8258 469.959 12.9602 470.3 13.1648C470.644 13.3693 470.93 13.678 471.158 14.0909C471.385 14.5038 471.499 15.0568 471.499 15.75V21.5H470.158V20.3182H470.089C469.999 20.5076 469.847 20.7102 469.635 20.9261C469.423 21.142 469.141 21.3258 468.788 21.4773C468.436 21.6288 468.006 21.7045 467.499 21.7045ZM467.703 20.5C468.233 20.5 468.68 20.3958 469.044 20.1875C469.411 19.9792 469.688 19.7102 469.874 19.3807C470.063 19.0511 470.158 18.7045 470.158 18.3409V17.1136C470.101 17.1818 469.976 17.2443 469.783 17.3011C469.593 17.3542 469.374 17.4015 469.124 17.4432C468.877 17.4811 468.637 17.5152 468.402 17.5455C468.171 17.572 467.983 17.5947 467.839 17.6136C467.491 17.6591 467.165 17.733 466.862 17.8352C466.563 17.9337 466.321 18.0833 466.135 18.2841C465.953 18.4811 465.862 18.75 465.862 19.0909C465.862 19.5568 466.035 19.9091 466.379 20.1477C466.728 20.3826 467.169 20.5 467.703 20.5ZM477.241 21.6818C476.514 21.6818 475.872 21.4981 475.315 21.1307C474.759 20.7595 474.323 20.2367 474.009 19.5625C473.694 18.8845 473.537 18.0833 473.537 17.1591C473.537 16.2424 473.694 15.447 474.009 14.7727C474.323 14.0985 474.76 13.5777 475.321 13.2102C475.882 12.8428 476.529 12.6591 477.264 12.6591C477.832 12.6591 478.281 12.7538 478.611 12.9432C478.944 13.1288 479.198 13.3409 479.372 13.5795C479.55 13.8144 479.688 14.0076 479.787 14.1591H479.901V9.86364H481.241V21.5H479.946V20.1591H479.787C479.688 20.3182 479.548 20.5189 479.366 20.7614C479.185 21 478.925 21.214 478.588 21.4034C478.251 21.589 477.802 21.6818 477.241 21.6818ZM477.423 20.4773C477.961 20.4773 478.416 20.3371 478.787 20.0568C479.158 19.7727 479.44 19.3807 479.634 18.8807C479.827 18.3769 479.923 17.7955 479.923 17.1364C479.923 16.4848 479.829 15.9148 479.639 15.4261C479.45 14.9337 479.17 14.5511 478.798 14.2784C478.427 14.0019 477.969 13.8636 477.423 13.8636C476.855 13.8636 476.382 14.0095 476.003 14.3011C475.628 14.589 475.346 14.9811 475.156 15.4773C474.971 15.9697 474.878 16.5227 474.878 17.1364C474.878 17.7576 474.973 18.322 475.162 18.8295C475.355 19.3333 475.639 19.7348 476.014 20.0341C476.393 20.3295 476.863 20.4773 477.423 20.4773ZM487.179 21.6818C486.452 21.6818 485.81 21.4981 485.253 21.1307C484.696 20.7595 484.26 20.2367 483.946 19.5625C483.632 18.8845 483.474 18.0833 483.474 17.1591C483.474 16.2424 483.632 15.447 483.946 14.7727C484.26 14.0985 484.698 13.5777 485.259 13.2102C485.819 12.8428 486.467 12.6591 487.202 12.6591C487.77 12.6591 488.219 12.7538 488.548 12.9432C488.882 13.1288 489.135 13.3409 489.31 13.5795C489.488 13.8144 489.626 14.0076 489.724 14.1591H489.838V9.86364H491.179V21.5H489.884V20.1591H489.724C489.626 20.3182 489.486 20.5189 489.304 20.7614C489.122 21 488.863 21.214 488.526 21.4034C488.188 21.589 487.74 21.6818 487.179 21.6818ZM487.361 20.4773C487.899 20.4773 488.353 20.3371 488.724 20.0568C489.096 19.7727 489.378 19.3807 489.571 18.8807C489.764 18.3769 489.861 17.7955 489.861 17.1364C489.861 16.4848 489.766 15.9148 489.577 15.4261C489.387 14.9337 489.107 14.5511 488.736 14.2784C488.365 14.0019 487.906 13.8636 487.361 13.8636C486.793 13.8636 486.319 14.0095 485.94 14.3011C485.565 14.589 485.283 14.9811 485.094 15.4773C484.908 15.9697 484.815 16.5227 484.815 17.1364C484.815 17.7576 484.91 18.322 485.099 18.8295C485.293 19.3333 485.577 19.7348 485.952 20.0341C486.33 20.3295 486.8 20.4773 487.361 20.4773ZM493.821 21.5V12.7727H495.116V14.0909H495.207C495.366 13.6591 495.654 13.3087 496.071 13.0398C496.488 12.7708 496.957 12.6364 497.48 12.6364C497.579 12.6364 497.702 12.6383 497.849 12.642C497.997 12.6458 498.109 12.6515 498.185 12.6591V14.0227C498.139 14.0114 498.035 13.9943 497.872 13.9716C497.713 13.9451 497.545 13.9318 497.366 13.9318C496.942 13.9318 496.563 14.0208 496.23 14.1989C495.901 14.3731 495.639 14.6155 495.446 14.9261C495.257 15.233 495.162 15.5833 495.162 15.9773V21.5H493.821ZM503.168 21.6818C502.327 21.6818 501.601 21.4962 500.991 21.125C500.385 20.75 499.918 20.2273 499.588 19.5568C499.262 18.8826 499.099 18.0985 499.099 17.2045C499.099 16.3106 499.262 15.5227 499.588 14.8409C499.918 14.1553 500.376 13.6212 500.963 13.2386C501.554 12.8523 502.243 12.6591 503.031 12.6591C503.486 12.6591 503.935 12.7348 504.378 12.8864C504.821 13.0379 505.224 13.2841 505.588 13.625C505.952 13.9621 506.241 14.4091 506.457 14.9659C506.673 15.5227 506.781 16.2083 506.781 17.0227V17.5909H500.054V16.4318H505.418C505.418 15.9394 505.319 15.5 505.122 15.1136C504.929 14.7273 504.652 14.4223 504.293 14.1989C503.937 13.9754 503.516 13.8636 503.031 13.8636C502.497 13.8636 502.035 13.9962 501.645 14.2614C501.259 14.5227 500.961 14.8636 500.753 15.2841C500.545 15.7045 500.44 16.1553 500.44 16.6364V17.4091C500.44 18.0682 500.554 18.6269 500.781 19.0852C501.012 19.5398 501.332 19.8864 501.741 20.125C502.151 20.3598 502.626 20.4773 503.168 20.4773C503.52 20.4773 503.838 20.428 504.122 20.3295C504.41 20.2273 504.658 20.0758 504.866 19.875C505.075 19.6705 505.236 19.4167 505.349 19.1136L506.645 19.4773C506.509 19.9167 506.279 20.303 505.957 20.6364C505.635 20.9659 505.238 21.2235 504.764 21.4091C504.291 21.5909 503.759 21.6818 503.168 21.6818ZM515.003 14.7273L513.798 15.0682C513.723 14.8674 513.611 14.6723 513.463 14.483C513.319 14.2898 513.122 14.1307 512.872 14.0057C512.622 13.8807 512.302 13.8182 511.912 13.8182C511.378 13.8182 510.933 13.9413 510.577 14.1875C510.224 14.4299 510.048 14.7386 510.048 15.1136C510.048 15.447 510.17 15.7102 510.412 15.9034C510.654 16.0966 511.033 16.2576 511.548 16.3864L512.844 16.7045C513.624 16.8939 514.205 17.1837 514.588 17.5739C514.971 17.9602 515.162 18.4583 515.162 19.0682C515.162 19.5682 515.018 20.0152 514.73 20.4091C514.446 20.803 514.048 21.1136 513.537 21.3409C513.026 21.5682 512.431 21.6818 511.753 21.6818C510.863 21.6818 510.126 21.4886 509.543 21.1023C508.959 20.7159 508.59 20.1515 508.435 19.4091L509.707 19.0909C509.829 19.5606 510.058 19.9129 510.395 20.1477C510.736 20.3826 511.181 20.5 511.73 20.5C512.355 20.5 512.851 20.3674 513.219 20.1023C513.59 19.8333 513.776 19.5114 513.776 19.1364C513.776 18.8333 513.67 18.5795 513.457 18.375C513.245 18.1667 512.92 18.0114 512.48 17.9091L511.026 17.5682C510.226 17.3788 509.639 17.0852 509.264 16.6875C508.893 16.286 508.707 15.7841 508.707 15.1818C508.707 14.6894 508.846 14.2538 509.122 13.875C509.402 13.4962 509.783 13.1989 510.264 12.983C510.749 12.767 511.298 12.6591 511.912 12.6591C512.776 12.6591 513.454 12.8485 513.946 13.2273C514.442 13.6061 514.795 14.1061 515.003 14.7273ZM523.362 14.7273L522.158 15.0682C522.082 14.8674 521.97 14.6723 521.822 14.483C521.679 14.2898 521.482 14.1307 521.232 14.0057C520.982 13.8807 520.661 13.8182 520.271 13.8182C519.737 13.8182 519.292 13.9413 518.936 14.1875C518.584 14.4299 518.408 14.7386 518.408 15.1136C518.408 15.447 518.529 15.7102 518.771 15.9034C519.014 16.0966 519.393 16.2576 519.908 16.3864L521.203 16.7045C521.983 16.8939 522.565 17.1837 522.947 17.5739C523.33 17.9602 523.521 18.4583 523.521 19.0682C523.521 19.5682 523.377 20.0152 523.089 20.4091C522.805 20.803 522.408 21.1136 521.896 21.3409C521.385 21.5682 520.79 21.6818 520.112 21.6818C519.222 21.6818 518.485 21.4886 517.902 21.1023C517.319 20.7159 516.949 20.1515 516.794 19.4091L518.067 19.0909C518.188 19.5606 518.417 19.9129 518.754 20.1477C519.095 20.3826 519.54 20.5 520.089 20.5C520.714 20.5 521.211 20.3674 521.578 20.1023C521.949 19.8333 522.135 19.5114 522.135 19.1364C522.135 18.8333 522.029 18.5795 521.817 18.375C521.605 18.1667 521.279 18.0114 520.839 17.9091L519.385 17.5682C518.586 17.3788 517.999 17.0852 517.624 16.6875C517.252 16.286 517.067 15.7841 517.067 15.1818C517.067 14.6894 517.205 14.2538 517.482 13.875C517.762 13.4962 518.143 13.1989 518.624 12.983C519.108 12.767 519.658 12.6591 520.271 12.6591C521.135 12.6591 521.813 12.8485 522.305 13.2273C522.802 13.6061 523.154 14.1061 523.362 14.7273Z" fill="#960505"/>
</svg>
