<svg width="615" height="615" viewBox="0 0 615 615" fill="none" xmlns="http://www.w3.org/2000/svg">
<path d="M615 470.352H0V470.659H615V470.352Z" fill="#EBEBEB"/>
<path d="M388.274 478.728H356.958V479.036H388.274V478.728Z" fill="#EBEBEB"/>
<path d="M560.191 485.383H485.985V485.69H560.191V485.383Z" fill="#EBEBEB"/>
<path d="M350.292 478.876H273.626V479.183H350.292V478.876Z" fill="#EBEBEB"/>
<path d="M223.909 488.076H207.87V488.384H223.909V488.076Z" fill="#EBEBEB"/>
<path d="M312.531 488.076H239.493V488.384H312.531V488.076Z" fill="#EBEBEB"/>
<path d="M111.819 482.885H64.5259V483.193H111.819V482.885Z" fill="#EBEBEB"/>
<path d="M291.51 415.494H54.0093C52.1487 415.491 50.3655 414.749 49.051 413.432C47.7366 412.116 46.9983 410.331 46.9983 408.471V74.6117C47.0145 72.7618 47.7599 70.993 49.0726 69.6895C50.3853 68.386 52.1593 67.6531 54.0093 67.6499H291.51C293.373 67.6499 295.159 68.3899 296.476 69.707C297.793 71.0241 298.533 72.8105 298.533 74.6732V408.471C298.533 410.333 297.793 412.12 296.476 413.437C295.159 414.754 293.373 415.494 291.51 415.494ZM54.0093 67.8959C52.2303 67.8992 50.5253 68.6082 49.2685 69.8673C48.0117 71.1264 47.3058 72.8327 47.3058 74.6117V408.471C47.3058 410.25 48.0117 411.956 49.2685 413.215C50.5253 414.474 52.2303 415.183 54.0093 415.186H291.51C293.29 415.183 294.996 414.475 296.255 413.216C297.514 411.957 298.223 410.251 298.226 408.471V74.6117C298.223 72.8316 297.514 71.1253 296.255 69.8665C294.996 68.6078 293.29 67.8992 291.51 67.8959H54.0093Z" fill="#EBEBEB"/>
<path d="M557.571 415.494H320.058C318.197 415.491 316.412 414.75 315.096 413.433C313.779 412.117 313.038 410.332 313.035 408.471V74.6117C313.054 72.7607 313.802 70.9919 315.117 69.6887C316.432 68.3856 318.207 67.653 320.058 67.6499H557.571C559.419 67.6563 561.19 68.3907 562.5 69.6938C563.81 70.997 564.554 72.7639 564.57 74.6117V408.471C564.57 410.329 563.833 412.112 562.522 413.428C561.21 414.745 559.43 415.487 557.571 415.494ZM320.058 67.8959C318.278 67.8992 316.572 68.6078 315.313 69.8665C314.054 71.1253 313.346 72.8316 313.342 74.6117V408.471C313.346 410.251 314.054 411.957 315.313 413.216C316.572 414.475 318.278 415.183 320.058 415.186H557.571C559.351 415.183 561.058 414.475 562.316 413.216C563.575 411.957 564.284 410.251 564.287 408.471V74.6117C564.284 72.8316 563.575 71.1253 562.316 69.8665C561.058 68.6078 559.351 67.8992 557.571 67.8959H320.058Z" fill="#EBEBEB"/>
<path d="M241.031 363.674H159.359L154.402 306.479H236.074L241.031 363.674Z" fill="#E6E6E6"/>
<path d="M245.262 363.674H163.59L158.633 306.479H240.305L245.262 363.674Z" fill="#F0F0F0"/>
<path d="M174.758 351.386L172.028 318.754H229.137L231.867 351.386H174.758Z" fill="white"/>
<path d="M259.395 363.674H249.813V470.352H259.395V363.674Z" fill="#E6E6E6"/>
<path d="M262.42 363.674H255.766V470.352H262.42V363.674Z" fill="#F0F0F0"/>
<path d="M169.666 375.445H262.42V363.674H169.666V375.445Z" fill="#F0F0F0"/>
<path d="M172.938 375.445H163.356V470.352H172.938V375.445Z" fill="#E6E6E6"/>
<path d="M175.964 375.445H169.31V470.352H175.964V375.445Z" fill="#F0F0F0"/>
<path d="M104.735 375.445H95.1528V470.352H104.735V375.445Z" fill="#E6E6E6"/>
<path d="M107.76 375.445H101.106V470.352H107.76V375.445Z" fill="#F0F0F0"/>
<path d="M198.756 375.445H189.174V470.352H198.756V375.445Z" fill="#E6E6E6"/>
<path d="M201.769 375.445H195.115V470.352H201.769V375.445Z" fill="#F0F0F0"/>
<path d="M169.666 363.674H95.1528V375.445H169.666V363.674Z" fill="#E6E6E6"/>
<path d="M447.523 97.6743H159.297V258.14H447.523V97.6743Z" fill="#E0E0E0"/>
<path d="M463.353 97.6743H160.749V258.14H463.353V97.6743Z" fill="#F5F5F5"/>
<path d="M458.409 253.195V102.619L165.693 102.619V253.195L458.409 253.195Z" fill="white"/>
<path d="M284.216 253.196L339.48 102.619H248.276L193.012 253.196H284.216Z" fill="#F5F5F5"/>
<path d="M372.001 253.196L427.265 102.619H358.459L303.195 253.196H372.001Z" fill="#F5F5F5"/>
<path d="M538.875 317.094H514.374V470.352H538.875V317.094Z" fill="#E6E6E6"/>
<path d="M532.43 470.352H538.875V458.556H525.677L532.43 470.352Z" fill="#FAFAFA"/>
<path d="M312.974 317.094H288.472V470.352H312.974V317.094Z" fill="#E6E6E6"/>
<path d="M538.875 317.094H307.353V467.166H538.875V317.094Z" fill="#FAFAFA"/>
<path d="M534.496 365.519H311.743V323.133H534.496V365.519ZM312.973 364.289H533.266V324.363H312.973V364.289Z" fill="#E6E6E6"/>
<path d="M495.284 343.711H355.273C348.779 343.711 342.518 338.471 338.053 329.32L337.635 328.447H512.91L512.492 329.32C507.99 338.471 501.84 343.711 495.284 343.711ZM339.652 329.64C343.81 337.795 349.492 342.444 355.273 342.444H495.284C501.09 342.444 506.748 337.795 510.905 329.64H339.652Z" fill="#E6E6E6"/>
<path d="M313.798 470.352H307.353V458.556H320.55L313.798 470.352Z" fill="#FAFAFA"/>
<path d="M534.496 413.28H311.743V370.943H534.496V413.28ZM312.973 412.05H533.266V372.173H312.973V412.05Z" fill="#E6E6E6"/>
<path d="M495.284 391.521H355.273C348.779 391.521 342.518 386.269 338.053 377.13L337.635 376.245H512.91L512.492 377.13C507.99 386.22 501.84 391.521 495.284 391.521ZM339.652 377.475C343.81 385.63 349.492 390.291 355.273 390.291H495.284C501.09 390.291 506.748 385.63 510.905 377.475H339.652Z" fill="#E6E6E6"/>
<path d="M534.496 461.127H311.743V418.741H534.496V461.127ZM312.973 459.897H533.266V419.971H312.973V459.897Z" fill="#E6E6E6"/>
<path d="M495.284 439.319H355.273C348.779 439.319 342.518 434.079 338.053 424.94L337.635 424.055H512.91L512.492 424.94C507.99 434.079 501.84 439.319 495.284 439.319ZM339.652 425.285C343.81 433.44 349.492 438.089 355.273 438.089H495.284C501.09 438.089 506.748 433.44 510.905 425.285H339.652Z" fill="#E6E6E6"/>
<path d="M148.805 337.364V340.341H146.911L145.337 363.674H122.164L120.602 340.341H118.695V337.364H148.805Z" fill="#E6E6E6"/>
<path d="M141.179 279.468C139.285 265.569 120.528 261.609 96.7272 261.092C74.0829 260.612 66.8259 252.605 66.8259 252.605C66.8259 252.605 66.8997 285.04 99.5316 296.799C130.515 307.943 143.086 293.392 141.179 279.468Z" fill="#E6E6E6"/>
<path d="M129.617 310.968C130.011 305.261 139.138 294.757 161.093 299.529C176.96 302.986 182.864 294.757 182.864 294.757C182.864 294.757 181.388 317.979 157.526 324.954C134.857 331.583 128.916 321.03 129.617 310.968Z" fill="#E6E6E6"/>
<path d="M134.623 346.122C134.747 346.123 134.869 346.097 134.982 346.046C135.095 345.995 135.195 345.92 135.275 345.827C136.862 343.945 135.558 339.443 133.762 333.207C131.45 325.212 128.572 315.249 131.007 308.029C132.357 304.215 133.934 300.485 135.73 296.86C139.174 289.579 142.151 283.33 139.666 276.713C139.628 276.608 139.568 276.511 139.492 276.429C139.416 276.347 139.324 276.28 139.222 276.234C139.12 276.187 139.01 276.162 138.897 276.158C138.785 276.154 138.674 276.173 138.569 276.213C138.464 276.253 138.368 276.313 138.286 276.39C138.205 276.467 138.14 276.56 138.094 276.662C138.049 276.765 138.024 276.875 138.022 276.987C138.019 277.1 138.039 277.211 138.08 277.316C140.306 283.207 137.612 288.915 134.193 296.147C132.374 299.83 130.772 303.617 129.396 307.488C126.801 315.212 129.753 325.458 132.127 333.674C133.529 338.594 134.98 343.514 133.984 344.744C133.905 344.829 133.844 344.93 133.806 345.039C133.768 345.149 133.753 345.265 133.762 345.381C133.772 345.497 133.805 345.609 133.86 345.711C133.915 345.813 133.991 345.903 134.082 345.974C134.239 346.086 134.431 346.139 134.623 346.122Z" fill="#E6E6E6"/>
<path d="M307.5 525.899C439.212 525.899 545.985 519.665 545.985 511.975C545.985 504.285 439.212 498.052 307.5 498.052C175.789 498.052 69.0154 504.285 69.0154 511.975C69.0154 519.665 175.789 525.899 307.5 525.899Z" fill="#F5F5F5"/>
<path d="M307.451 444.091H132.791L123.234 163.196H297.894L307.451 444.091Z" fill="#321F01"/>
<path d="M316.172 435.371H141.512L131.942 154.476H306.602L316.172 435.371Z" fill="#321F01"/>
<path opacity="0.3" d="M316.172 435.371H141.512L131.942 154.476H306.602L316.172 435.371Z" fill="white"/>
<path d="M257.651 270.064C276.352 251.04 275.557 219.933 255.874 200.584C236.192 181.235 205.075 180.972 186.374 199.995C167.673 219.019 168.469 250.126 188.151 269.475C207.834 288.824 238.95 289.087 257.651 270.064Z" fill="#321F01"/>
<path d="M262.568 235.04C262.82 241.734 261.359 248.38 258.325 254.351C255.05 260.786 250.046 266.181 243.876 269.931C237.706 273.681 230.613 275.638 223.393 275.581C216.003 275.541 208.754 273.559 202.372 269.833C195.99 266.106 190.701 260.767 187.034 254.351C183.615 248.472 181.705 241.838 181.474 235.04C181.247 229.77 182.094 224.508 183.964 219.575C185.833 214.642 188.686 210.141 192.349 206.345C196.012 202.548 200.408 199.536 205.271 197.492C210.134 195.447 215.362 194.412 220.637 194.45C231.505 194.527 241.925 198.788 249.733 206.346C257.542 213.905 262.138 224.181 262.568 235.04Z" fill="white"/>
<path opacity="0.6" d="M258.3 254.351C255.025 260.786 250.021 266.181 243.851 269.931C237.681 273.681 230.588 275.638 223.368 275.581C215.978 275.541 208.729 273.559 202.347 269.833C195.965 266.106 190.676 260.767 187.009 254.351C197.411 247.259 209.72 243.49 222.31 243.54C235.103 243.567 247.61 247.325 258.3 254.351Z" fill="#321F01"/>
<path opacity="0.6" d="M234.649 234.029C241.526 227.034 241.233 215.595 233.996 208.481C226.759 201.366 215.317 201.269 208.44 208.264C201.564 215.26 201.856 226.698 209.094 233.813C216.331 240.927 227.773 241.024 234.649 234.029Z" fill="#321F01"/>
<path d="M281.079 333.65H169.666L168.916 311.51H280.329L281.079 333.65Z" fill="white"/>
<path d="M282.433 373.219H171.007L170.257 351.079H281.682L282.433 373.219Z" fill="white"/>
<path d="M239.432 354.129L212.581 357.819C212.325 357.848 212.077 357.93 211.854 358.06C211.631 358.189 211.437 358.363 211.285 358.571C211.132 358.779 211.024 359.016 210.968 359.268C210.912 359.519 210.908 359.78 210.957 360.033L214.487 378.028C214.603 378.556 214.912 379.022 215.353 379.334C215.795 379.646 216.337 379.781 216.873 379.713L243.724 376.023C243.98 375.991 244.226 375.906 244.448 375.775C244.669 375.644 244.862 375.468 245.013 375.259C245.164 375.051 245.271 374.813 245.326 374.562C245.382 374.31 245.385 374.05 245.336 373.797L241.818 355.802C241.702 355.275 241.393 354.81 240.951 354.5C240.509 354.19 239.967 354.058 239.432 354.129ZM231.72 372.358L226.8 373.01L226.32 367.204C225.813 366.985 225.366 366.647 225.017 366.219C224.668 365.791 224.427 365.285 224.315 364.744C224.225 364.325 224.223 363.892 224.311 363.472C224.398 363.053 224.573 362.656 224.823 362.309C225.074 361.961 225.394 361.669 225.764 361.453C226.134 361.237 226.546 361.101 226.972 361.054C227.845 360.942 228.729 361.161 229.449 361.669C230.169 362.177 230.672 362.936 230.859 363.797C230.965 364.317 230.933 364.856 230.764 365.359C230.596 365.862 230.297 366.312 229.899 366.663L231.72 372.358Z" fill="#321F01"/>
<path d="M236.775 353.157C236.3 353.218 235.82 353.099 235.429 352.823C235.037 352.548 234.763 352.136 234.659 351.669L234.315 349.91C233.823 347.51 232.478 345.369 230.528 343.886C228.579 342.402 226.157 341.676 223.712 341.841C222.479 341.912 221.275 342.247 220.182 342.824C219.09 343.4 218.134 344.206 217.38 345.185C216.626 346.164 216.092 347.293 215.814 348.497C215.535 349.701 215.519 350.951 215.767 352.161L216.16 354.191C216.206 354.416 216.204 354.648 216.155 354.872C216.106 355.096 216.011 355.307 215.876 355.493C215.74 355.678 215.567 355.833 215.369 355.948C215.17 356.062 214.949 356.134 214.721 356.159C214.245 356.225 213.762 356.108 213.37 355.832C212.977 355.556 212.704 355.14 212.605 354.67L212.273 352.961C211.936 351.363 211.924 349.713 212.24 348.111C212.556 346.509 213.193 344.987 214.112 343.637C215.031 342.287 216.214 341.136 217.589 340.255C218.964 339.374 220.503 338.78 222.113 338.508C225.605 337.922 229.189 338.702 232.12 340.688C235.052 342.674 237.106 345.712 237.857 349.172L238.251 351.189C238.297 351.417 238.294 351.652 238.243 351.879C238.192 352.105 238.093 352.318 237.954 352.504C237.814 352.69 237.637 352.844 237.434 352.957C237.231 353.069 237.006 353.138 236.775 353.157Z" fill="#321F01"/>
<path d="M264.044 404.227H191.511L191.031 389.812H263.552L264.044 404.227Z" fill="#321F01"/>
<path d="M229.051 322.58C229.072 323.106 228.987 323.63 228.8 324.122C228.613 324.614 228.328 325.063 227.962 325.441C227.596 325.819 227.157 326.12 226.672 326.323C226.187 326.527 225.665 326.63 225.139 326.626C224.055 326.618 223.015 326.193 222.234 325.44C221.454 324.687 220.992 323.663 220.945 322.58C220.923 322.054 221.009 321.529 221.196 321.037C221.383 320.546 221.668 320.097 222.034 319.719C222.399 319.34 222.838 319.04 223.323 318.836C223.809 318.632 224.33 318.529 224.856 318.533C225.942 318.538 226.983 318.962 227.765 319.716C228.546 320.469 229.006 321.495 229.051 322.58Z" fill="#263238"/>
<path d="M211.56 322.58C211.583 323.106 211.499 323.631 211.313 324.124C211.126 324.617 210.841 325.066 210.475 325.445C210.109 325.824 209.669 326.124 209.183 326.327C208.697 326.53 208.175 326.632 207.648 326.626C206.565 326.618 205.527 326.193 204.748 325.44C203.97 324.686 203.511 323.662 203.466 322.58C203.445 322.054 203.53 321.529 203.717 321.037C203.904 320.546 204.19 320.097 204.555 319.719C204.921 319.34 205.36 319.04 205.845 318.836C206.33 318.632 206.852 318.529 207.378 318.533C208.462 318.539 209.502 318.963 210.281 319.717C211.061 320.471 211.519 321.496 211.56 322.58Z" fill="#263238"/>
<path d="M194.18 322.58C194.202 323.106 194.116 323.63 193.929 324.122C193.742 324.614 193.457 325.063 193.091 325.441C192.725 325.819 192.287 326.12 191.801 326.323C191.316 326.527 190.795 326.63 190.269 326.626C189.184 326.621 188.144 326.197 187.365 325.443C186.586 324.689 186.128 323.663 186.087 322.58C186.065 322.054 186.15 321.529 186.337 321.037C186.525 320.546 186.81 320.097 187.175 319.719C187.541 319.34 187.98 319.04 188.465 318.836C188.95 318.632 189.472 318.529 189.998 318.533C191.082 318.539 192.122 318.963 192.902 319.717C193.681 320.471 194.139 321.496 194.18 322.58Z" fill="#263238"/>
<path d="M246.48 322.58C246.501 323.106 246.416 323.63 246.229 324.122C246.042 324.614 245.756 325.063 245.391 325.441C245.025 325.819 244.586 326.12 244.101 326.323C243.616 326.527 243.094 326.63 242.568 326.626C241.484 326.621 240.444 326.197 239.665 325.443C238.885 324.689 238.427 323.663 238.386 322.58C238.368 322.055 238.456 321.533 238.646 321.044C238.835 320.555 239.122 320.109 239.489 319.734C239.856 319.359 240.295 319.063 240.78 318.863C241.265 318.663 241.785 318.563 242.31 318.57C243.386 318.578 244.418 318.998 245.193 319.744C245.969 320.49 246.429 321.505 246.48 322.58Z" fill="#263238"/>
<path d="M263.909 322.58C263.932 323.106 263.848 323.631 263.662 324.124C263.475 324.617 263.19 325.066 262.824 325.445C262.458 325.824 262.018 326.124 261.532 326.327C261.046 326.53 260.524 326.632 259.997 326.626C258.914 326.618 257.875 326.193 257.097 325.44C256.318 324.686 255.859 323.662 255.815 322.58C255.794 322.054 255.879 321.529 256.066 321.037C256.253 320.546 256.538 320.097 256.904 319.719C257.27 319.34 257.709 319.04 258.194 318.836C258.679 318.632 259.2 318.529 259.727 318.533C260.811 318.539 261.851 318.963 262.63 319.717C263.41 320.471 263.868 321.496 263.909 322.58Z" fill="#263238"/>
<path d="M410.709 214.364C412.345 216.996 413.711 219.506 415.113 222.126C416.515 224.745 417.782 227.378 419.024 230.071C421.559 235.526 423.657 241.173 425.297 246.959C425.519 247.685 425.679 248.46 425.863 249.21L426.134 250.354L426.269 250.92L426.429 251.855C426.706 253.975 426.577 256.129 426.048 258.201C425.198 261.419 423.907 264.503 422.21 267.365C419.174 272.566 415.506 277.371 411.287 281.67L406.109 277.758C408.708 272.98 411.021 268.052 413.034 262.998C413.931 260.772 414.563 258.448 414.916 256.074C415.029 255.349 414.996 254.608 414.818 253.896L414.326 252.396C414.129 251.781 413.944 251.166 413.711 250.539C411.84 245.464 409.675 240.503 407.228 235.68C404.768 230.76 402.124 225.84 399.479 221.142L410.709 214.364Z" fill="#FF8B7B"/>
<path d="M407.425 276.049L401.767 279.038L408.262 286.639C408.262 286.639 412.321 283.896 412.505 279.714L407.425 276.049Z" fill="#FF8B7B"/>
<path d="M394.178 283.724L401.128 289.247L408.262 286.639L401.767 279.038L394.178 283.724Z" fill="#FF8B7B"/>
<path d="M370.415 174.119C370.279 174.808 369.8 175.287 369.357 175.201C368.914 175.115 368.656 174.476 368.791 173.799C368.926 173.123 369.406 172.569 369.861 172.717C370.316 172.864 370.55 173.43 370.415 174.119Z" fill="#263238"/>
<path d="M369.861 175.3C368.622 177.226 367.124 178.973 365.408 180.49C365.814 180.91 366.305 181.237 366.848 181.45C367.392 181.662 367.975 181.754 368.557 181.72L369.861 175.3Z" fill="#FF5652"/>
<path d="M367.647 199.432V191.363L378.323 192.593C378.323 192.593 378.151 199.53 372.173 201.572L367.647 199.432Z" fill="#FF8B7B"/>
<path d="M370.722 185.558L378.237 187.723L378.373 192.655L367.696 191.363L370.722 185.558Z" fill="#FF8B7B"/>
<path opacity="0.2" d="M378.237 187.723L370.722 185.558L369.258 188.362C369.338 190.572 370.029 192.716 371.253 194.558C372.478 196.399 374.189 197.865 376.196 198.793C377.487 196.989 378.242 194.857 378.373 192.643L378.237 187.723Z" fill="black"/>
<path d="M373.686 170.835C373.765 170.833 373.842 170.808 373.907 170.764C373.973 170.721 374.025 170.659 374.057 170.587C374.089 170.515 374.1 170.435 374.089 170.357C374.078 170.279 374.045 170.206 373.994 170.146C373.562 169.658 373.019 169.281 372.411 169.045C371.804 168.81 371.149 168.723 370.501 168.793C370.395 168.811 370.3 168.87 370.238 168.958C370.176 169.046 370.151 169.154 370.168 169.26C370.187 169.367 370.245 169.463 370.333 169.527C370.42 169.591 370.528 169.619 370.636 169.605C371.149 169.554 371.667 169.627 372.146 169.818C372.625 170.008 373.052 170.31 373.391 170.699C373.429 170.74 373.474 170.774 373.525 170.797C373.576 170.82 373.63 170.833 373.686 170.835Z" fill="#263238"/>
<path d="M389.406 186.566C388.176 192.901 387.413 201.671 391.866 205.89C391.866 205.89 390.144 212.31 378.336 212.31C365.408 212.31 372.124 206.677 372.124 206.677C377.499 205.004 377.45 198.891 376.22 193.971L389.406 186.566Z" fill="#FF8B7B"/>
<path d="M394.264 210.121C395.421 208.497 395.371 203.344 394.141 202.433C392.161 200.97 383.662 200.625 372.235 203.258C373.465 208.251 370.821 210.859 370.821 210.859L394.264 210.121Z" fill="#321F01"/>
<path d="M432.714 502.135C432.363 502.259 431.991 502.312 431.619 502.29C431.248 502.269 430.884 502.175 430.549 502.012C430.422 501.894 430.335 501.74 430.3 501.57C430.265 501.4 430.283 501.224 430.352 501.065C430.391 500.932 430.458 500.809 430.55 500.705C430.641 500.601 430.754 500.518 430.881 500.462C432.05 499.897 434.731 500.991 434.854 501.041C434.891 501.055 434.922 501.081 434.944 501.114C434.966 501.147 434.978 501.186 434.977 501.225C434.977 501.265 434.967 501.303 434.947 501.338C434.928 501.372 434.9 501.401 434.866 501.422C434.173 501.727 433.452 501.965 432.714 502.135ZM431.299 500.745C431.218 500.765 431.14 500.793 431.066 500.831C430.989 500.859 430.92 500.905 430.864 500.965C430.809 501.025 430.768 501.097 430.746 501.176C430.635 501.545 430.746 501.668 430.82 501.705C431.287 502.098 433.009 501.705 434.227 501.25C433.301 500.866 432.301 500.694 431.299 500.745Z" fill="#321F01"/>
<path d="M434.817 501.434H434.719C433.735 501.151 431.644 499.663 431.619 498.691C431.618 498.537 431.67 498.387 431.767 498.266C431.863 498.145 431.998 498.061 432.148 498.027C432.294 497.972 432.45 497.951 432.605 497.964C432.761 497.976 432.911 498.023 433.046 498.101C434.202 498.691 434.94 501.077 434.965 501.188C434.982 501.218 434.991 501.252 434.991 501.286C434.991 501.321 434.982 501.355 434.965 501.385C434.946 501.404 434.923 501.419 434.897 501.427C434.871 501.436 434.844 501.438 434.817 501.434ZM432.357 498.371H432.259C432.013 498.457 432.013 498.58 432.013 498.642C432.013 499.22 433.415 500.389 434.473 500.856C434.215 500.167 433.649 498.802 432.899 498.396C432.732 498.32 432.543 498.311 432.37 498.371H432.357Z" fill="#321F01"/>
<path d="M368.828 503.586C367.721 503.586 366.651 503.427 366.294 502.935C366.201 502.803 366.151 502.646 366.151 502.486C366.151 502.325 366.201 502.168 366.294 502.037C366.364 501.916 366.458 501.812 366.57 501.729C366.682 501.647 366.81 501.588 366.946 501.557C368.385 501.163 371.411 502.885 371.534 502.959C371.571 502.978 371.602 503.008 371.62 503.046C371.638 503.084 371.642 503.127 371.632 503.168C371.628 503.21 371.609 503.25 371.581 503.281C371.552 503.312 371.514 503.333 371.472 503.34C370.6 503.5 369.715 503.583 368.828 503.586ZM367.462 501.901C367.332 501.88 367.199 501.88 367.069 501.901C366.986 501.919 366.907 501.952 366.837 502.001C366.767 502.05 366.708 502.112 366.663 502.184C366.515 502.443 366.577 502.566 366.663 502.639C367.069 503.205 369.246 503.217 370.857 502.984C369.805 502.409 368.653 502.041 367.462 501.901Z" fill="#321F01"/>
<path d="M371.46 503.341H371.374C370.328 502.873 368.262 501.004 368.422 500.02C368.422 499.786 368.619 499.503 369.184 499.454C369.387 499.43 369.592 499.449 369.786 499.508C369.981 499.567 370.161 499.666 370.316 499.798C371.104 500.741 371.577 501.906 371.669 503.132C371.669 503.167 371.661 503.201 371.646 503.233C371.631 503.265 371.61 503.293 371.583 503.316C371.545 503.335 371.502 503.344 371.46 503.341ZM369.344 499.835H369.221C368.852 499.835 368.828 500.007 368.828 500.057C368.729 500.647 370.132 502.123 371.202 502.763C371.108 501.775 370.708 500.842 370.058 500.093C369.856 499.921 369.597 499.829 369.332 499.835H369.344Z" fill="#321F01"/>
<path d="M380.956 503.144H372.309L371.448 483.107H380.095L380.956 503.144Z" fill="#FF8B7B"/>
<path d="M444.461 499.134L436.011 500.967L427.511 482.308L435.974 480.475L444.461 499.134Z" fill="#FF8B7B"/>
<path d="M435.186 500.118L444.694 498.064C444.861 498.029 445.034 498.051 445.186 498.127C445.338 498.203 445.459 498.328 445.531 498.482L448.827 505.641C448.915 505.814 448.96 506.006 448.96 506.2C448.959 506.394 448.913 506.586 448.824 506.758C448.735 506.931 448.606 507.081 448.449 507.194C448.291 507.308 448.109 507.382 447.917 507.412C444.596 508.064 442.935 508.224 438.766 509.122C436.195 509.687 430.389 511.102 426.835 511.865C423.28 512.627 422.062 509.22 423.452 508.593C429.664 505.751 432.247 503.255 433.932 500.93C434.237 500.515 434.683 500.226 435.186 500.118Z" fill="#263238"/>
<path d="M372.37 502.135H381.817C381.988 502.136 382.154 502.195 382.288 502.302C382.422 502.409 382.516 502.559 382.555 502.726L384.264 510.413C384.314 510.599 384.32 510.794 384.281 510.982C384.242 511.171 384.16 511.348 384.04 511.498C383.921 511.649 383.767 511.77 383.592 511.85C383.418 511.931 383.227 511.97 383.034 511.963C379.627 511.901 374.707 511.705 370.427 511.705C365.408 511.705 361.091 511.975 355.212 511.975C351.657 511.975 350.673 508.384 352.161 508.052C358.926 506.576 364.461 506.416 370.304 502.812C370.917 502.401 371.632 502.167 372.37 502.135Z" fill="#263238"/>
<path d="M407.339 207.87C415.445 209.727 422.099 230.428 422.099 230.428L405.9 242.814C401.695 238.319 398.729 232.809 397.29 226.824C394.424 215.976 399.049 205.951 407.339 207.87Z" fill="#321F01"/>
<path opacity="0.4" d="M407.339 207.87C415.445 209.727 422.099 230.428 422.099 230.428L405.9 242.814C401.695 238.319 398.729 232.809 397.29 226.824C394.424 215.976 399.049 205.951 407.339 207.87Z" fill="black"/>
<path d="M364.695 232.556C362.678 234.733 360.661 236.677 358.545 238.706C357.5 239.69 356.442 240.674 355.359 241.621L353.723 243.06L353.318 243.417L352.616 243.983C351.895 244.559 351.096 245.031 350.243 245.385C349.293 245.788 348.273 245.997 347.241 246C346.36 246.004 345.485 245.85 344.658 245.545C343.741 245.195 342.905 244.664 342.198 243.983C341.297 243.102 340.637 242.005 340.28 240.797C340.093 240.201 339.973 239.587 339.923 238.964C339.858 238.236 339.858 237.503 339.923 236.775C339.984 236.185 340.058 235.668 340.157 235.188C340.493 233.511 340.97 231.865 341.583 230.268C342.137 228.75 342.773 227.264 343.49 225.816C344.277 224.253 345.027 223.11 345.778 221.806C348.825 216.814 352.303 212.097 356.171 207.71C360.001 203.349 364.221 199.347 368.779 195.754L373.305 200.416C370.132 204.672 367.007 209.235 364.117 213.725C361.24 218.189 358.612 222.808 356.245 227.562C355.716 228.718 355.015 230.022 354.683 230.957C354.243 232.043 353.861 233.151 353.539 234.278C353.229 235.292 352.995 236.329 352.838 237.378C352.83 237.542 352.83 237.706 352.838 237.87C352.838 237.968 352.838 238.017 352.838 237.759C352.818 237.483 352.764 237.21 352.678 236.947C352.412 236.075 351.925 235.287 351.263 234.659C350.675 234.119 349.985 233.701 349.234 233.429C348.574 233.179 347.874 233.05 347.168 233.048C346.488 233.04 345.815 233.17 345.187 233.429C344.975 233.516 344.769 233.619 344.572 233.737L345.04 233.306L346.528 231.953L349.468 229.198C351.411 227.365 353.367 225.41 355.212 223.589L364.695 232.556Z" fill="#FF8B7B"/>
<path opacity="0.2" d="M400.39 223.073C404.793 227.427 406.232 235.373 406.54 242.261L405.826 242.814C401.622 238.319 398.655 232.809 397.216 226.824C397.056 226.185 396.909 225.594 396.798 224.893L400.39 223.073Z" fill="black"/>
<path d="M356.097 216.48C354.326 225.828 353.219 245.028 358.348 283.035H404.67C404.99 275.938 400.525 241.277 407.376 207.808C402.257 206.825 397.081 206.172 391.878 205.853C385.323 205.477 378.753 205.477 372.198 205.853C370.033 206.05 367.893 206.369 366.048 206.701C363.594 207.132 361.329 208.297 359.552 210.043C357.775 211.79 356.571 214.034 356.097 216.48Z" fill="#321F01"/>
<path opacity="0.4" d="M356.097 216.48C354.326 225.828 353.219 245.028 358.348 283.035H404.67C404.99 275.938 400.525 241.277 407.376 207.808C402.257 206.825 397.081 206.172 391.878 205.853C385.323 205.477 378.753 205.477 372.198 205.853C370.033 206.05 367.893 206.369 366.048 206.701C363.594 207.132 361.329 208.297 359.552 210.043C357.775 211.79 356.571 214.034 356.097 216.48Z" fill="black"/>
<path opacity="0.2" d="M363.182 230.342L354.818 228.337C354.56 233.405 354.535 239.678 354.904 247.439C358.754 243.06 363.674 236.221 363.182 230.342Z" fill="black"/>
<path opacity="0.2" d="M371.448 483.107L371.891 493.439H380.55L380.107 483.107H371.448Z" fill="black"/>
<path opacity="0.2" d="M435.974 480.475L427.511 482.308L431.89 491.926L440.352 490.093L435.974 480.475Z" fill="black"/>
<path d="M393.514 177.317C391.3 185.607 390.414 190.576 385.297 194.02C377.61 199.26 368.016 193.257 367.77 184.5C367.499 176.591 371.177 164.352 380.07 162.68C382.024 162.313 384.04 162.45 385.926 163.078C387.813 163.705 389.509 164.803 390.854 166.267C392.199 167.732 393.149 169.515 393.614 171.448C394.08 173.381 394.045 175.401 393.514 177.317Z" fill="#FF8B7B"/>
<path d="M374.105 177.624C373.686 176.517 371.78 167.944 373.576 165.718C375.372 163.492 395.851 165.103 398.877 168.08C403.908 173 400.414 177.428 394.916 183.122C390.783 187.403 390.624 192.224 388.533 192.962C384.843 194.192 379.209 193.036 378.078 189.137C376.946 185.238 374.105 177.624 374.105 177.624Z" fill="#263238"/>
<path d="M396.392 158.326C389.16 155.251 375.593 158.658 368.262 156.886C368.169 159.612 369.065 162.28 370.786 164.396C372.506 166.512 374.935 167.934 377.622 168.399C383.703 169.558 389.882 170.131 396.072 170.109C404.117 169.74 402.542 160.945 396.392 158.326Z" fill="#263238"/>
<path d="M397.524 168.338C400.166 168.598 402.826 168.089 405.187 166.874C406.54 170.146 399.098 171.044 397.524 168.338Z" fill="#263238"/>
<path d="M378.04 177.969C377.874 180.102 377.01 182.121 375.58 183.713C373.686 185.791 371.718 184.488 371.386 181.966C371.091 179.678 371.706 175.816 374.018 174.709C376.331 173.602 378.2 175.398 378.04 177.969Z" fill="#FF8B7B"/>
<path d="M374.769 283.072C374.769 283.072 384.609 349.185 389.984 373.957C395.876 401.078 427.536 490.807 427.536 490.807L443.021 487.449C443.021 487.449 420.881 414.313 415.961 376.392C412.148 347.266 404.658 283.048 404.658 283.048L374.769 283.072Z" fill="#321F01"/>
<path d="M423.821 485.653C423.76 485.653 426.712 491.262 426.712 491.262L444.129 487.486L442.665 482.246L423.821 485.653Z" fill="#263238"/>
<path opacity="0.3" d="M380.98 306.627C392.333 308.853 391.128 351.189 389.762 372.973C386.491 357.573 381.694 327.955 378.422 306.934C379.215 306.543 380.117 306.434 380.98 306.627Z" fill="black"/>
<path d="M358.348 283.072C358.348 283.072 357.118 347.758 358.102 374.092C359.086 401.533 368.668 491.385 368.668 491.385H383.33C383.33 491.385 383.858 403.132 384.56 376.183C385.273 346.811 388.815 283.023 388.815 283.023L358.348 283.072Z" fill="#321F01"/>
<path d="M365.851 485.604C365.777 485.604 366.675 491.68 366.675 491.68H384.498L384.99 486.256L365.851 485.604Z" fill="#263238"/>
<path d="M374.227 219.358C378.373 230.539 354.006 243.712 354.006 243.712L343.453 230.182C343.453 230.182 350.55 216.136 359.16 209.813C369.799 202.015 371.066 210.847 374.227 219.358Z" fill="#321F01"/>
<path opacity="0.4" d="M374.227 219.358C378.373 230.539 354.006 243.712 354.006 243.712L343.453 230.182C343.453 230.182 350.55 216.136 359.16 209.813C369.799 202.015 371.066 210.847 374.227 219.358Z" fill="black"/>
<path d="M469.7 134.476C494.216 134.476 514.091 121.81 514.091 106.186C514.091 90.5619 494.216 77.896 469.7 77.896C445.184 77.896 425.309 90.5619 425.309 106.186C425.309 121.81 445.184 134.476 469.7 134.476Z" fill="#321F01"/>
<path d="M453.685 120.429C450.761 120.42 447.934 119.38 445.7 117.493C443.466 115.605 441.969 112.991 441.471 110.11C440.982 106.988 441.686 103.797 443.444 101.171C445.201 98.5455 447.883 96.6779 450.955 95.94C453.476 95.3591 456.116 95.583 458.503 96.5802C460.89 97.5775 462.905 99.2979 464.263 101.5L492.762 95.6202C493.858 95.3803 495.003 95.5625 495.97 96.1302C496.937 96.698 497.654 97.6096 497.978 98.6829C498.127 99.2472 498.159 99.836 498.073 100.413C497.987 100.991 497.784 101.544 497.477 102.04C497.169 102.537 496.764 102.965 496.285 103.299C495.807 103.633 495.265 103.866 494.694 103.984L493.956 104.132C493.846 104.151 493.742 104.196 493.653 104.262C493.563 104.328 493.49 104.414 493.439 104.513C493.393 104.614 493.37 104.723 493.37 104.833C493.37 104.943 493.393 105.052 493.439 105.153L493.943 106.457C494.112 106.879 494.129 107.347 493.989 107.781C493.85 108.214 493.564 108.585 493.181 108.83C492.878 109.017 492.623 109.271 492.433 109.571C492.243 109.872 492.125 110.211 492.086 110.565C492.05 110.97 491.886 111.354 491.619 111.661C491.352 111.968 490.994 112.183 490.598 112.274L490.02 112.397C489.619 112.471 489.205 112.416 488.838 112.239C488.471 112.062 488.17 111.773 487.978 111.413C487.722 110.984 487.34 110.646 486.883 110.445C486.426 110.244 485.918 110.19 485.429 110.292C484.94 110.393 484.495 110.645 484.156 111.011C483.817 111.378 483.601 111.841 483.537 112.336C483.503 112.739 483.342 113.12 483.076 113.425C482.811 113.731 482.456 113.943 482.062 114.033L481.483 114.156C481.083 114.228 480.67 114.172 480.303 113.995C479.936 113.819 479.635 113.531 479.442 113.172C479.257 112.867 479.009 112.606 478.714 112.406C478.419 112.207 478.084 112.073 477.732 112.016C477.259 111.959 476.823 111.732 476.506 111.376C476.189 111.02 476.012 110.561 476.01 110.085V108.683C476.005 108.573 475.976 108.466 475.926 108.368C475.876 108.271 475.805 108.185 475.718 108.117C475.632 108.049 475.532 108.001 475.425 107.976C475.318 107.95 475.207 107.948 475.1 107.969L466.01 109.839C465.639 112.357 464.502 114.7 462.752 116.549C461.002 118.398 458.726 119.662 456.231 120.171C455.394 120.342 454.541 120.429 453.685 120.429ZM451.225 97.0593C448.436 97.711 445.996 99.3954 444.399 101.774C442.801 104.152 442.164 107.047 442.615 109.876C443.099 112.508 444.509 114.88 446.59 116.563C448.67 118.246 451.285 119.128 453.96 119.051C456.635 118.974 459.194 117.942 461.174 116.142C463.154 114.341 464.424 111.892 464.755 109.236V108.793L474.78 106.764C475.067 106.694 475.367 106.69 475.656 106.75C475.946 106.811 476.219 106.935 476.454 107.114C476.69 107.293 476.882 107.523 477.018 107.785C477.154 108.048 477.23 108.338 477.24 108.634V110.036C477.243 110.203 477.303 110.364 477.41 110.491C477.518 110.619 477.666 110.706 477.83 110.737C478.368 110.814 478.881 111.012 479.331 111.317C479.78 111.622 480.155 112.025 480.426 112.496C480.491 112.629 480.596 112.738 480.726 112.808C480.856 112.879 481.004 112.907 481.151 112.889L481.717 112.766C481.861 112.729 481.988 112.647 482.081 112.532C482.174 112.417 482.228 112.275 482.234 112.127C482.311 111.361 482.63 110.64 483.145 110.067C483.659 109.495 484.342 109.101 485.095 108.942C485.848 108.783 486.632 108.868 487.334 109.184C488.035 109.5 488.619 110.031 488.999 110.7C489.062 110.832 489.164 110.94 489.292 111.011C489.42 111.082 489.567 111.11 489.712 111.094L490.302 110.971C490.444 110.931 490.569 110.848 490.659 110.733C490.75 110.618 490.802 110.477 490.807 110.331C490.868 109.791 491.051 109.272 491.343 108.814C491.635 108.355 492.028 107.97 492.492 107.687C492.627 107.589 492.726 107.449 492.773 107.288C492.82 107.128 492.812 106.956 492.75 106.801L492.246 105.497C492.142 105.228 492.097 104.94 492.116 104.652C492.135 104.365 492.216 104.084 492.354 103.831C492.492 103.578 492.684 103.359 492.916 103.187C493.148 103.016 493.415 102.898 493.697 102.84L494.448 102.68C494.854 102.594 495.238 102.426 495.578 102.188C495.918 101.949 496.206 101.644 496.425 101.292C496.644 100.939 496.79 100.546 496.854 100.136C496.918 99.7257 496.899 99.3068 496.797 98.9043C496.557 98.1302 496.033 97.4756 495.33 97.0718C494.628 96.668 493.798 96.5449 493.008 96.7272L463.71 102.816L463.488 102.434C462.311 100.339 460.484 98.6833 458.283 97.718C456.081 96.7528 453.626 96.5302 451.287 97.0839L451.225 97.0593ZM453.685 115.854C452.158 115.871 450.658 115.443 449.368 114.624C447.843 113.622 446.712 112.123 446.169 110.381C445.625 108.639 445.703 106.763 446.388 105.072C447.073 103.381 448.323 101.98 449.926 101.108C451.529 100.236 453.384 99.9462 455.176 100.289C456.968 100.632 458.586 101.585 459.754 102.987C460.921 104.39 461.566 106.153 461.579 107.978C461.592 109.802 460.971 111.575 459.824 112.993C458.676 114.411 457.071 115.388 455.284 115.755C454.761 115.85 454.229 115.891 453.698 115.878L453.685 115.854ZM453.685 101.327C453.227 101.33 452.77 101.375 452.32 101.463C451.463 101.645 450.651 101.995 449.929 102.491C449.207 102.988 448.59 103.622 448.113 104.357C447.636 105.092 447.309 105.913 447.15 106.775C446.99 107.636 447.002 108.521 447.185 109.378C447.367 110.235 447.717 111.047 448.213 111.769C448.71 112.491 449.344 113.108 450.079 113.585C450.814 114.061 451.636 114.389 452.497 114.548C453.359 114.707 454.243 114.696 455.1 114.513C456.386 114.245 457.565 113.603 458.486 112.666C459.408 111.73 460.032 110.541 460.279 109.251C460.526 107.96 460.386 106.626 459.876 105.415C459.366 104.204 458.509 103.171 457.412 102.447C456.323 101.722 455.042 101.341 453.735 101.352L453.685 101.327Z" fill="white"/>
<path opacity="0.6" d="M433.575 151.069C441.631 151.069 448.163 146.906 448.163 141.77C448.163 136.634 441.631 132.471 433.575 132.471C425.518 132.471 418.987 136.634 418.987 141.77C418.987 146.906 425.518 151.069 433.575 151.069Z" fill="#321F01"/>
<path opacity="0.3" d="M410.365 154.882C413.673 154.882 416.355 153.174 416.355 151.069C416.355 148.963 413.673 147.256 410.365 147.256C407.057 147.256 404.375 148.963 404.375 151.069C404.375 153.174 407.057 154.882 410.365 154.882Z" fill="#321F01"/>
</svg>
