<svg width="615" height="615" viewBox="0 0 615 615" fill="none" xmlns="http://www.w3.org/2000/svg">
<path d="M105.104 514.14C214.278 569.957 391.288 569.957 500.45 514.14C609.613 458.323 609.625 367.77 500.45 312.014C391.275 256.258 214.278 256.197 105.104 312.014C-4.07126 367.831 -4.05896 458.335 105.104 514.14Z" fill="#F5F5F5"/>
<path d="M462.148 424.977C468.138 428.434 479.897 427.241 488.409 422.321L537.51 393.797C546.034 388.877 548.076 382.087 542.086 378.619C536.096 375.15 524.349 376.38 515.825 381.3L466.748 409.848C458.224 414.732 456.17 421.521 462.148 424.977Z" fill="#EBEBEB"/>
<path d="M166.431 451.287L116.469 422.444L166.431 393.6V451.287Z" fill="#EBEBEB"/>
<path d="M307.648 468.544L227.12 422.025L307.66 375.593L307.648 468.544Z" fill="#EBEBEB"/>
<path d="M98.8429 383.846C98.9905 372.161 90.8233 347.844 78.88 332.531C66.9367 317.217 47.9701 305.889 34.4401 310.354C21.7711 314.523 22.9396 331.079 38.1301 342.235C53.3206 353.391 76.1371 367.438 82.6438 386.515L96.4813 409.885L98.8429 383.846Z" fill="#5D3801"/>
<path opacity="0.1" d="M98.8429 383.846C98.9905 372.161 90.8233 347.844 78.88 332.531C66.9367 317.217 47.9701 305.889 34.4401 310.354C21.7711 314.523 22.9396 331.079 38.1301 342.235C53.3206 353.391 76.1371 367.438 82.6438 386.515L96.4813 409.885L98.8429 383.846Z" fill="black"/>
<path d="M99.5193 399.848C99.3327 399.832 99.1566 399.754 99.0187 399.628C98.8807 399.501 98.7886 399.332 98.7567 399.147C91.3767 359.16 59.5197 326.344 40.2948 318.951C40.1787 318.92 40.0704 318.864 39.9771 318.788C39.8838 318.712 39.8075 318.617 39.7531 318.51C39.6987 318.402 39.6674 318.284 39.6613 318.164C39.6552 318.044 39.6743 317.924 39.7175 317.811C39.7608 317.699 39.8271 317.597 39.9122 317.512C39.9973 317.427 40.0993 317.36 40.2117 317.317C40.3241 317.274 40.4443 317.255 40.5645 317.261C40.6848 317.267 40.8024 317.298 40.9098 317.352C60.5037 324.892 92.9757 358.25 100.43 398.84C100.451 398.95 100.45 399.063 100.428 399.172C100.405 399.282 100.361 399.386 100.299 399.479C100.236 399.571 100.155 399.65 100.062 399.712C99.9679 399.773 99.863 399.815 99.753 399.836L99.5193 399.848Z" fill="white"/>
<path d="M93.2587 425.31C91.4629 418.717 83.5663 407.782 70.7005 398.668C56.4571 388.594 38.3515 383.822 34.2556 376.06C29.3356 366.737 37.2445 358.078 51.9676 360.07C66.6907 362.063 92.3731 382.53 96.1615 412.862L93.2587 425.31Z" fill="#5D3801"/>
<path d="M96.1983 418.446C96.034 418.432 95.8772 418.372 95.7463 418.271C95.6155 418.171 95.5162 418.035 95.4603 417.88C83.64 383.551 57.7116 371.239 45.6576 369.529C45.4341 369.498 45.2321 369.379 45.096 369.199C44.96 369.02 44.9009 368.793 44.9319 368.569C44.9629 368.346 45.0814 368.144 45.2613 368.008C45.4412 367.872 45.6678 367.813 45.8913 367.844C59.2245 369.738 85.0176 382.284 97.0839 417.314C97.1553 417.53 97.1399 417.765 97.0412 417.969C96.9425 418.173 96.7681 418.331 96.555 418.409C96.4397 418.445 96.3185 418.457 96.1983 418.446Z" fill="white"/>
<path d="M534.964 350.55C534.964 350.55 536.6 325.95 551.114 307.623C565.628 289.296 564.742 281.793 554.73 278.103C544.718 274.413 521.52 296.492 526.637 325.95C531.754 355.409 534.964 350.55 534.964 350.55Z" fill="#5D3801"/>
<path opacity="0.1" d="M534.964 350.55C534.964 350.55 536.6 325.95 551.114 307.623C565.628 289.296 564.742 281.793 554.73 278.103C544.718 274.413 521.52 296.492 526.637 325.95C531.754 355.409 534.964 350.55 534.964 350.55Z" fill="black"/>
<path d="M530.524 336.503C530.379 336.504 530.239 336.45 530.132 336.352C530.024 336.254 529.958 336.119 529.946 335.974C528.261 308.841 547.412 286.578 554.546 281.535C554.606 281.49 554.674 281.459 554.747 281.441C554.819 281.424 554.895 281.422 554.968 281.435C555.042 281.447 555.112 281.475 555.175 281.515C555.237 281.555 555.291 281.608 555.333 281.67C555.42 281.794 555.454 281.948 555.429 282.097C555.404 282.247 555.321 282.381 555.198 282.469C548.162 287.389 529.368 309.247 531.04 335.901C531.047 336.05 530.996 336.196 530.898 336.309C530.799 336.421 530.661 336.491 530.512 336.503H530.524Z" fill="white"/>
<path d="M531.016 370.919C537.552 373.055 544.248 374.667 551.04 375.741C562.282 377.512 567.251 372.137 567.251 372.137C567.251 372.137 562.823 361.595 556.44 358.607C563.347 360.158 569.942 362.865 575.948 366.614C575.948 366.614 582.811 366.725 585.542 356.245C585.542 356.245 581.483 349.935 567.83 346.528C567.83 346.528 576.132 344.437 588.1 347.487C588.998 347.844 592.823 334.302 593.979 328.053C595.136 321.805 592.626 321.903 587.756 320.563C582.885 319.222 566.735 315.643 563.684 318.312C560.634 320.981 559.084 330.157 559.084 330.157C557.876 326.4 557.719 322.385 558.629 318.546C558.629 318.546 554.25 316.836 547.436 318.816C541.877 320.427 541.606 324.216 541.852 328.496C542.181 332.214 543.009 335.872 544.312 339.369C544.312 339.369 539.97 333.81 539.835 321.743C539.835 321.743 528.445 327.401 526.502 338.717C525.37 344.855 523.869 362.85 531.016 370.919Z" fill="#5D3801"/>
<path d="M533.156 368.729C533.275 368.729 533.393 368.695 533.495 368.632C533.597 368.569 533.679 368.48 533.734 368.373C542.799 349.517 576.538 327.611 588.616 325.261C588.698 325.246 588.776 325.216 588.846 325.17C588.916 325.125 588.976 325.066 589.023 324.998C589.07 324.929 589.103 324.852 589.119 324.77C589.136 324.689 589.137 324.605 589.121 324.523C589.085 324.358 588.987 324.214 588.847 324.12C588.707 324.026 588.536 323.99 588.37 324.019C576.07 326.417 541.803 348.619 532.59 367.819C532.518 367.971 532.508 368.145 532.563 368.304C532.619 368.463 532.734 368.594 532.885 368.668C532.97 368.706 533.062 368.727 533.156 368.729Z" fill="white"/>
<path d="M94.4392 434.018C93.0493 434.018 92.2129 432.874 92.2129 430.943V224.044L345.63 77.7605V283.822C345.542 285.543 345.051 287.219 344.197 288.714C343.342 290.21 342.148 291.484 340.71 292.432L96.4564 433.39C95.8504 433.772 95.1549 433.989 94.4392 434.018Z" fill="#FAFAFA"/>
<path d="M344.867 79.0028V283.822C344.764 285.418 344.295 286.969 343.495 288.353C342.695 289.738 341.586 290.919 340.255 291.805L96.0998 432.763C95.6027 433.085 95.0304 433.271 94.4393 433.304C93.074 433.304 92.9264 431.644 92.9264 430.943V224.463L344.867 79.0028ZM346.306 76.5428L91.4873 223.626V430.943C91.4873 433.403 92.7173 434.743 94.4393 434.743C95.2804 434.713 96.0988 434.463 96.8132 434.018L340.98 293.047C342.53 292.036 343.82 290.674 344.745 289.071C345.671 287.468 346.205 285.67 346.306 283.822V76.5059V76.5428Z" fill="#E0E0E0"/>
<path d="M91.4995 223.626V258.251L346.306 111.13V76.5059L91.4995 223.626Z" fill="#5D3801"/>
<path d="M111.475 225.471V230.391C111.475 231.4 112.2 231.818 113.074 231.314L191.412 186.087V177.477L113.074 222.704C112.611 223.01 112.226 223.419 111.948 223.899C111.671 224.379 111.508 224.918 111.475 225.471Z" fill="#FAFAFA"/>
<path d="M199.813 172.63C200.699 172.114 201.413 172.532 201.413 173.553V178.473C201.381 179.027 201.219 179.566 200.942 180.046C200.664 180.527 200.278 180.936 199.813 181.24L191.413 186.087V177.477L199.813 172.63Z" fill="#455A64"/>
<path d="M91.4873 212.47C91.5883 210.622 92.1231 208.824 93.0484 207.221C93.9736 205.619 95.2634 204.257 96.8132 203.245L340.98 62.2748C343.92 60.5774 346.306 61.955 346.306 65.3498V76.5059L91.4873 223.626V212.47Z" fill="#455A64"/>
<path d="M317.98 81.352C317.259 81.828 316.661 82.4669 316.234 83.2169C315.807 83.967 315.562 84.8071 315.52 85.6694C315.52 87.2684 316.639 87.908 317.98 87.1208C318.7 86.6421 319.298 86.001 319.725 85.2489C320.152 84.4969 320.397 83.655 320.44 82.7911C320.489 81.1798 319.369 80.5525 317.98 81.352Z" fill="#5D3801"/>
<path d="M325.95 76.7766C325.23 77.2525 324.632 77.8914 324.204 78.6415C323.777 79.3915 323.532 80.2316 323.49 81.0939C323.49 82.6929 324.609 83.3325 325.95 82.5453C326.669 82.0652 327.266 81.4237 327.693 80.672C328.12 79.9203 328.365 79.0791 328.41 78.2157C328.41 76.6167 327.278 75.9771 325.95 76.7766Z" fill="#5D3801"/>
<path d="M333.81 72.2009C333.089 72.6769 332.491 73.3157 332.064 74.0658C331.637 74.8158 331.392 75.656 331.35 76.5182C331.35 78.1172 332.469 78.7568 333.81 77.9696C334.529 77.4895 335.126 76.8481 335.553 76.0963C335.98 75.3446 336.225 74.5034 336.27 73.64C336.307 72.041 335.187 71.4014 333.81 72.2009Z" fill="#5D3801"/>
<g opacity="0.1">
<path d="M266.357 133.664C264.768 134.703 263.447 136.102 262.5 137.748C261.553 139.394 261.008 141.239 260.908 143.135C260.908 146.616 263.368 148.055 266.357 146.284C267.947 145.248 269.271 143.852 270.22 142.208C271.169 140.565 271.716 138.72 271.818 136.825C271.83 133.344 269.37 131.93 266.357 133.664Z" fill="black"/>
<path d="M241.387 148.092C239.797 149.127 238.473 150.524 237.524 152.167C236.575 153.811 236.028 155.655 235.926 157.551C235.926 161.032 238.386 162.471 241.387 160.712C242.976 159.672 244.297 158.273 245.244 156.628C246.191 154.982 246.736 153.137 246.836 151.241C246.836 147.76 244.401 146.37 241.387 148.092Z" fill="black"/>
<path d="M291.338 119.31C289.749 120.347 288.428 121.744 287.481 123.387C286.534 125.031 285.989 126.874 285.889 128.769C285.889 132.249 288.349 133.689 291.338 131.917C292.929 130.883 294.253 129.487 295.202 127.843C296.151 126.199 296.698 124.354 296.799 122.459C296.799 118.916 294.363 117.502 291.338 119.31Z" fill="black"/>
<path d="M316.331 104.796C314.741 105.831 313.417 107.227 312.468 108.871C311.519 110.515 310.971 112.359 310.87 114.255C310.87 117.735 313.33 119.175 316.331 117.403C317.922 116.368 319.246 114.972 320.195 113.328C321.144 111.684 321.691 109.84 321.793 107.945C321.793 104.464 319.345 103.049 316.331 104.796Z" fill="black"/>
</g>
<path d="M116.85 260.945L176.148 226.701C179.088 225.004 181.474 226.382 181.474 229.776V286.713C181.373 288.561 180.838 290.359 179.913 291.962C178.988 293.564 177.698 294.927 176.148 295.938L116.85 330.169C113.91 331.866 111.524 330.489 111.524 327.094V270.17C111.625 268.322 112.16 266.524 113.085 264.921C114.01 263.318 115.3 261.956 116.85 260.945Z" fill="#E0E0E0"/>
<path d="M201.72 211.904L325.95 140.22C328.89 138.51 331.276 139.888 331.276 143.295V200.219C331.175 202.067 330.64 203.865 329.715 205.468C328.79 207.071 327.5 208.433 325.95 209.444L201.72 281.129C198.78 282.826 196.394 281.449 196.394 278.054V221.129C196.495 219.281 197.03 217.483 197.955 215.881C198.88 214.278 200.17 212.916 201.72 211.904Z" fill="#E0E0E0"/>
<path d="M116.85 347.475L211.117 293.047C214.069 291.35 216.455 292.555 216.455 295.741C216.324 297.53 215.773 299.262 214.848 300.799C213.923 302.335 212.649 303.632 211.129 304.585L116.85 359.012C113.91 360.71 111.524 359.504 111.524 356.319C111.655 354.53 112.206 352.797 113.131 351.261C114.056 349.725 115.33 348.428 116.85 347.475Z" fill="#E0E0E0"/>
<path d="M116.85 367.672L211.117 313.244C214.069 311.547 216.455 312.752 216.455 315.938C216.324 317.726 215.773 319.459 214.848 320.995C213.923 322.532 212.649 323.829 211.129 324.781L116.85 379.209C113.91 380.906 111.524 379.701 111.524 376.515C111.655 374.727 112.206 372.994 113.131 371.458C114.056 369.921 115.33 368.624 116.85 367.672Z" fill="#E0E0E0"/>
<path d="M116.85 387.856L211.117 333.428C214.069 331.731 216.455 332.936 216.455 336.122C216.324 337.911 215.773 339.643 214.848 341.18C213.923 342.716 212.649 344.013 211.129 344.966L116.85 399.393C113.91 401.091 111.524 399.885 111.524 396.7C111.655 394.911 112.206 393.178 113.131 391.642C114.056 390.106 115.33 388.809 116.85 387.856Z" fill="#E0E0E0"/>
<path d="M161.438 319.394C161.5 318.286 161.823 317.207 162.378 316.246C162.933 315.285 163.707 314.467 164.636 313.859L328.115 219.481C329.106 218.978 330.201 218.715 331.313 218.715C332.424 218.715 333.52 218.978 334.511 219.481L338.115 221.56C339.043 222.167 339.816 222.985 340.369 223.947C340.923 224.908 341.242 225.987 341.3 227.095V352.407C341.24 353.515 340.92 354.593 340.367 355.554C339.813 356.515 339.042 357.333 338.115 357.942L174.66 452.32C173.669 452.824 172.573 453.086 171.462 453.086C170.351 453.086 169.255 452.824 168.264 452.32L164.66 450.241C163.731 449.634 162.957 448.817 162.401 447.855C161.846 446.894 161.524 445.815 161.462 444.706L161.438 319.394Z" fill="#5D3801"/>
<path opacity="0.4" d="M162.36 316.245L171.437 321.485L340.353 223.946C339.813 222.973 339.039 222.149 338.102 221.548L334.56 219.481C333.573 218.978 332.482 218.716 331.374 218.716C330.267 218.716 329.175 218.978 328.188 219.481L164.635 313.859C163.688 314.45 162.905 315.271 162.36 316.245Z" fill="white"/>
<path opacity="0.1" d="M161.438 319.394V444.706C161.5 445.815 161.821 446.894 162.377 447.855C162.932 448.816 163.706 449.634 164.636 450.241L168.239 452.32C168.516 452.481 168.809 452.612 169.113 452.714C169.541 452.858 169.981 452.961 170.429 453.021C171.269 453.124 172.121 453.091 172.95 452.923C173.163 452.884 173.372 452.831 173.578 452.763L173.959 452.615C173.716 452.72 173.455 452.774 173.19 452.774C172.926 452.774 172.664 452.72 172.421 452.615C172.081 452.389 171.81 452.072 171.638 451.701C171.467 451.33 171.402 450.918 171.45 450.512V325.175C171.417 324.605 171.559 324.039 171.855 323.551C172.152 323.064 172.589 322.678 173.11 322.444L171.45 321.485L162.36 316.245C161.79 317.199 161.473 318.283 161.438 319.394Z" fill="black"/>
<path opacity="0.2" d="M171.45 321.485L247.156 349.775C249.774 350.751 252.647 350.806 255.3 349.932C257.954 349.058 260.231 347.306 261.757 344.966L273.909 326.343L340.969 223.602L276.332 327.045L341.301 352.469C341.247 353.598 340.904 354.695 340.304 355.654L276.16 327.364L261.99 349.935C260.421 352.443 258 354.3 255.171 355.168C252.343 356.035 249.296 355.854 246.591 354.658L236.529 350.218L172.422 452.64C172.081 452.413 171.81 452.097 171.639 451.725C171.467 451.354 171.402 450.943 171.45 450.537V448.458L236.246 350.144L171.45 321.485Z" fill="black"/>
<path d="M306.332 177.624V465.321C306.332 468.716 308.718 470.094 311.657 468.396L440.906 393.772C442.456 392.761 443.745 391.399 444.671 389.796C445.596 388.193 446.131 386.395 446.232 384.547V96.8503C446.232 93.4555 443.846 92.0779 440.906 93.7753L311.657 168.399C310.106 169.409 308.815 170.771 307.89 172.374C306.965 173.977 306.431 175.776 306.332 177.624Z" fill="#FAFAFA" stroke="#E0E0E0" stroke-width="1.16981" stroke-miterlimit="10"/>
<path d="M313.822 182.975C313.864 182.519 314.011 182.08 314.252 181.691C314.494 181.303 314.822 180.976 315.212 180.736L329.972 172.237C330.735 171.794 331.35 172.089 331.35 172.889C331.311 173.344 331.166 173.783 330.926 174.172C330.687 174.56 330.36 174.888 329.972 175.128L315.212 183.627C314.45 184.07 313.822 183.774 313.822 182.975Z" fill="#455A64"/>
<path d="M313.822 188.707C313.863 188.251 314.01 187.811 314.251 187.422C314.492 187.034 314.822 186.707 315.212 186.468L329.972 177.969C330.735 177.526 331.35 177.821 331.35 178.609C331.312 179.065 331.168 179.507 330.929 179.898C330.69 180.289 330.362 180.618 329.972 180.859L315.212 189.346C314.45 189.789 313.822 189.506 313.822 188.707Z" fill="#455A64"/>
<path d="M313.822 194.439C313.863 193.983 314.01 193.543 314.251 193.154C314.492 192.765 314.822 192.439 315.212 192.2L329.972 183.701C330.735 183.258 331.35 183.541 331.35 184.34C331.312 184.795 331.168 185.235 330.929 185.624C330.689 186.013 330.362 186.34 329.972 186.579L315.212 195.078C314.45 195.57 313.822 195.238 313.822 194.439Z" fill="#455A64"/>
<path d="M436.244 120.663V118.363C436.245 118.335 436.239 118.307 436.226 118.283C436.213 118.258 436.193 118.237 436.17 118.222C436.146 118.207 436.119 118.199 436.091 118.198C436.063 118.196 436.035 118.203 436.01 118.215L434.239 119.015C434.211 119.029 434.181 119.036 434.149 119.037C434.118 119.037 434.088 119.031 434.059 119.018C434.031 119.005 434.006 118.986 433.986 118.962C433.966 118.938 433.952 118.91 433.944 118.88C433.85 118.573 433.718 118.28 433.55 118.006C433.517 117.94 433.499 117.866 433.499 117.791C433.499 117.716 433.517 117.643 433.55 117.576L434.78 115.19C434.811 115.129 434.816 115.059 434.795 114.995C434.775 114.93 434.729 114.877 434.67 114.845L433.44 114.107C433.381 114.078 433.315 114.07 433.251 114.086C433.188 114.102 433.133 114.14 433.095 114.193L431.619 116.407C431.575 116.467 431.518 116.515 431.451 116.547C431.385 116.579 431.312 116.594 431.238 116.592C430.915 116.589 430.594 116.622 430.278 116.69C430.248 116.7 430.217 116.702 430.185 116.697C430.154 116.693 430.125 116.681 430.099 116.663C430.073 116.646 430.051 116.622 430.035 116.595C430.02 116.568 430.01 116.537 430.008 116.506L429.811 114.575C429.811 114.439 429.688 114.378 429.577 114.452L427.585 115.596C427.522 115.637 427.468 115.691 427.428 115.755C427.388 115.818 427.362 115.89 427.351 115.965L427.154 118.179C427.128 118.336 427.055 118.481 426.945 118.597C426.546 118.979 426.176 119.39 425.838 119.827C425.791 119.882 425.728 119.922 425.658 119.942C425.588 119.961 425.514 119.96 425.445 119.937L424.215 119.495C424.149 119.474 424.077 119.476 424.013 119.5C423.948 119.525 423.893 119.571 423.858 119.63L422.394 122.164C422.364 122.224 422.354 122.292 422.365 122.358C422.376 122.424 422.408 122.486 422.456 122.533L423.489 123.418C423.539 123.469 423.575 123.532 423.593 123.602C423.61 123.671 423.608 123.744 423.587 123.812C423.398 124.318 423.242 124.836 423.12 125.362C423.078 125.511 422.993 125.644 422.874 125.743L421.053 126.973C420.993 127.02 420.943 127.079 420.907 127.147C420.87 127.215 420.849 127.29 420.844 127.367V129.654C420.838 129.684 420.841 129.714 420.853 129.742C420.865 129.77 420.885 129.793 420.91 129.809C420.936 129.825 420.965 129.833 420.995 129.832C421.025 129.831 421.054 129.82 421.078 129.802L422.849 129.003C422.878 128.991 422.909 128.986 422.94 128.987C422.972 128.989 423.002 128.996 423.03 129.01C423.058 129.024 423.082 129.044 423.102 129.068C423.122 129.092 423.136 129.12 423.144 129.15C423.238 129.457 423.37 129.75 423.538 130.023C423.572 130.09 423.589 130.164 423.589 130.239C423.589 130.313 423.572 130.387 423.538 130.454L422.308 132.828C422.28 132.891 422.276 132.961 422.296 133.027C422.317 133.093 422.36 133.149 422.419 133.185L423.649 133.923C423.707 133.952 423.774 133.96 423.837 133.944C423.9 133.928 423.956 133.89 423.993 133.836L425.469 131.622C425.513 131.563 425.571 131.515 425.637 131.483C425.703 131.451 425.777 131.436 425.85 131.438C426.173 131.441 426.495 131.408 426.81 131.34C426.84 131.33 426.872 131.328 426.903 131.332C426.934 131.337 426.964 131.349 426.99 131.366C427.016 131.384 427.037 131.408 427.053 131.435C427.069 131.462 427.078 131.493 427.08 131.524L427.277 133.455C427.277 133.59 427.388 133.652 427.511 133.578L429.504 132.434C429.566 132.39 429.62 132.333 429.66 132.268C429.7 132.202 429.726 132.129 429.737 132.053L429.934 129.839C429.958 129.685 430.032 129.542 430.143 129.433C430.542 129.051 430.912 128.64 431.25 128.203C431.298 128.148 431.36 128.108 431.43 128.088C431.5 128.069 431.575 128.07 431.644 128.092L432.874 128.535C432.94 128.556 433.011 128.554 433.076 128.53C433.14 128.505 433.195 128.459 433.23 128.4L434.694 125.866C434.725 125.803 434.735 125.732 434.722 125.663C434.708 125.594 434.673 125.531 434.62 125.485L433.599 124.611C433.549 124.561 433.513 124.498 433.496 124.428C433.478 124.359 433.48 124.286 433.501 124.218C433.691 123.712 433.847 123.194 433.969 122.668C434.003 122.516 434.09 122.381 434.214 122.287L436.035 121.057C436.095 121.009 436.144 120.949 436.18 120.881C436.216 120.814 436.238 120.74 436.244 120.663ZM428.458 127.92C426.601 129.003 425.1 128.129 425.1 125.989C425.158 124.821 425.492 123.683 426.076 122.669C426.66 121.655 427.476 120.795 428.458 120.159C430.315 119.089 431.816 119.962 431.816 122.102C431.757 123.269 431.421 124.404 430.837 125.415C430.254 126.427 429.438 127.285 428.458 127.92Z" fill="#37474F"/>
<path d="M376.282 177.366C391.386 168.645 403.625 175.718 403.625 193.159C403.625 210.601 391.386 231.794 376.282 240.514C361.177 249.235 348.939 242.162 348.939 224.733C348.939 207.304 361.177 186.087 376.282 177.366Z" fill="#455A64"/>
<path d="M376.097 191.093C381.017 188.264 384.965 190.552 384.965 196.21C384.797 199.285 383.906 202.278 382.365 204.945C380.824 207.612 378.677 209.878 376.097 211.56C371.177 214.389 367.216 212.101 367.216 206.443C367.385 203.367 368.278 200.373 369.821 197.706C371.364 195.039 373.514 192.773 376.097 191.093Z" fill="#5D3801"/>
<path d="M393.6 221.252C393.6 211.966 387.069 208.19 379.025 212.839L373.92 215.742C365.876 220.391 359.345 231.732 359.345 240.994V243.54C360.864 244.025 362.449 244.27 364.043 244.266C368.359 244.119 372.561 242.847 376.233 240.576C383.258 236.26 389.2 230.39 393.6 223.417V221.252Z" fill="#5D3801"/>
<path d="M351.608 266.455L400.98 237.956C402.444 237.107 403.637 237.71 403.637 239.309C403.571 240.202 403.295 241.066 402.834 241.833C402.373 242.6 401.738 243.248 400.98 243.725L351.62 272.224C350.144 273.085 348.951 272.47 348.951 270.883C349.015 269.988 349.288 269.121 349.75 268.351C350.212 267.582 350.848 266.932 351.608 266.455Z" fill="#5D3801"/>
<path d="M346.306 286.848L406.257 252.15C407.733 251.301 408.926 251.904 408.926 253.503C408.859 254.397 408.582 255.263 408.119 256.03C407.655 256.797 407.017 257.444 406.257 257.919L346.306 292.617C344.83 293.466 343.637 292.863 343.637 291.264C343.704 290.37 343.981 289.505 344.444 288.737C344.908 287.97 345.546 287.323 346.306 286.848Z" fill="#455A64"/>
<path d="M407.856 280.12L424.645 270.428C425.531 269.924 426.244 270.157 426.244 270.957C426.178 271.447 425.999 271.915 425.721 272.325C425.444 272.735 425.076 273.075 424.645 273.318L407.856 283.011C406.983 283.515 406.257 283.281 406.257 282.494C406.324 282.003 406.503 281.533 406.781 281.122C407.058 280.71 407.426 280.368 407.856 280.12Z" fill="#37474F"/>
<path d="M323.982 322.789L348.644 308.558C350.107 307.709 351.3 308.398 351.3 310.095V327.02C351.25 327.943 350.983 328.842 350.521 329.643C350.06 330.444 349.417 331.126 348.644 331.633L323.982 345.864C322.518 346.713 321.325 346.024 321.325 344.326V327.402C321.376 326.478 321.643 325.58 322.104 324.779C322.566 323.978 323.209 323.296 323.982 322.789Z" fill="#5D3801"/>
<path d="M327.918 325.151L344.707 315.458C345.593 314.954 346.306 315.188 346.306 315.975C346.242 316.467 346.064 316.938 345.786 317.35C345.509 317.762 345.139 318.104 344.707 318.349L327.918 328.041C327.032 328.545 326.319 328.312 326.319 327.525C326.384 327.032 326.562 326.561 326.839 326.15C327.117 325.738 327.486 325.396 327.918 325.151Z" fill="#FAFAFA"/>
<path d="M326.319 333.687V338.607C326.319 339.628 327.032 340.034 327.918 339.529L344.707 329.837C345.173 329.534 345.56 329.125 345.838 328.645C346.116 328.164 346.276 327.624 346.306 327.07V322.15C346.306 321.129 345.593 320.723 344.707 321.227L327.918 330.87C327.447 331.18 327.057 331.596 326.779 332.086C326.501 332.576 326.343 333.124 326.319 333.687Z" fill="#FAFAFA"/>
<path d="M363.957 299.714L388.557 285.483C390.033 284.635 391.226 285.323 391.226 287.021V303.946C391.176 304.87 390.908 305.77 390.444 306.572C389.98 307.373 389.334 308.054 388.557 308.558L363.957 322.789C362.481 323.638 361.3 322.949 361.3 321.252V304.327C361.348 303.403 361.614 302.504 362.076 301.702C362.537 300.9 363.182 300.219 363.957 299.714Z" fill="#5D3801"/>
<path d="M367.893 302.076L384.682 292.384C385.556 291.879 386.269 292.113 386.269 292.9C386.204 293.391 386.027 293.86 385.752 294.272C385.477 294.683 385.111 295.026 384.682 295.274L367.893 304.966C367.007 305.471 366.294 305.237 366.294 304.438C366.36 303.947 366.539 303.479 366.817 303.069C367.094 302.66 367.462 302.32 367.893 302.076Z" fill="#FAFAFA"/>
<path d="M366.294 310.612V315.532C366.294 316.553 367.007 316.959 367.893 316.454L384.682 306.762C385.144 306.456 385.528 306.047 385.804 305.566C386.079 305.086 386.239 304.548 386.269 303.995V299.075C386.269 298.054 385.543 297.648 384.67 298.152L367.881 307.844C367.418 308.149 367.033 308.558 366.757 309.039C366.481 309.52 366.323 310.059 366.294 310.612Z" fill="#FAFAFA"/>
<path d="M403.932 276.639L428.532 262.396C429.996 261.547 431.189 262.236 431.189 263.934V280.871C431.138 281.794 430.871 282.692 430.41 283.493C429.949 284.294 429.305 284.976 428.532 285.483L403.932 299.714C402.456 300.563 401.263 299.874 401.263 298.177V281.252C401.313 280.327 401.581 279.427 402.045 278.626C402.509 277.824 403.156 277.144 403.932 276.639Z" fill="#5D3801"/>
<path d="M407.856 279.001L424.645 269.37C425.531 268.853 426.244 269.087 426.244 269.887C426.181 270.378 426.003 270.847 425.725 271.257C425.447 271.667 425.078 272.007 424.645 272.248L407.856 281.941C406.983 282.457 406.257 282.224 406.257 281.424C406.314 280.923 406.489 280.442 406.767 280.021C407.045 279.6 407.418 279.251 407.856 279.001Z" fill="#FAFAFA"/>
<path d="M406.257 287.537V292.457C406.257 293.466 406.983 293.884 407.856 293.38L424.645 283.675C425.111 283.373 425.499 282.964 425.777 282.483C426.055 282.002 426.215 281.462 426.244 280.907V275.987C426.244 274.967 425.531 274.548 424.645 275.065L407.856 284.757C407.389 285.062 407.002 285.473 406.724 285.956C406.446 286.439 406.286 286.981 406.257 287.537Z" fill="#FAFAFA"/>
<path d="M326.651 361.62L425.912 304.314C428.864 302.617 431.238 303.822 431.238 307.008C431.109 308.797 430.56 310.531 429.635 312.068C428.709 313.605 427.434 314.901 425.912 315.852L326.651 373.158C323.711 374.855 321.325 373.65 321.325 370.464C321.457 368.675 322.007 366.943 322.932 365.406C323.858 363.87 325.132 362.573 326.651 361.62Z" fill="#E0E0E0"/>
<path d="M326.651 384.707L425.912 327.402C428.864 325.704 431.238 326.91 431.238 330.095C431.109 331.885 430.56 333.618 429.635 335.155C428.709 336.692 427.434 337.988 425.912 338.939L326.651 396.257C323.711 397.954 321.325 396.749 321.325 393.551C321.457 391.762 322.007 390.03 322.932 388.493C323.858 386.957 325.132 385.66 326.651 384.707Z" fill="#E0E0E0"/>
<path d="M358.963 394.904L393.6 374.904C395.076 374.055 396.269 374.744 396.269 376.442V387.598C396.219 388.522 395.951 389.422 395.487 390.224C395.023 391.025 394.377 391.706 393.6 392.21L358.963 412.21C357.487 413.059 356.294 412.37 356.294 410.673V399.516C356.344 398.592 356.612 397.692 357.076 396.89C357.54 396.089 358.186 395.408 358.963 394.904Z" fill="#5D3801"/>
<path d="M328.816 363.33C328.096 363.808 327.498 364.45 327.07 365.202C326.643 365.954 326.398 366.795 326.356 367.659C326.356 369.246 327.475 369.898 328.816 369.098C329.536 368.62 330.134 367.979 330.562 367.227C330.989 366.475 331.234 365.633 331.276 364.769C331.313 363.182 330.194 362.53 328.816 363.33Z" fill="#FAFAFA"/>
<path d="M336.737 358.754C336.016 359.231 335.417 359.872 334.989 360.624C334.562 361.377 334.318 362.219 334.277 363.084C334.277 364.67 335.384 365.322 336.737 364.523C337.458 364.044 338.056 363.403 338.483 362.651C338.91 361.899 339.155 361.057 339.197 360.193C339.234 358.607 338.115 357.93 336.737 358.754Z" fill="#FAFAFA"/>
<path d="M344.646 354.24C343.926 354.719 343.328 355.36 342.9 356.112C342.473 356.864 342.228 357.706 342.186 358.57C342.186 360.157 343.305 360.808 344.646 360.009C345.366 359.53 345.964 358.889 346.392 358.137C346.819 357.385 347.064 356.543 347.106 355.679C347.143 354.031 346.024 353.379 344.646 354.24Z" fill="#FAFAFA"/>
<path d="M352.567 349.603C351.846 350.081 351.248 350.722 350.82 351.474C350.393 352.226 350.149 353.068 350.107 353.933C350.107 355.519 351.227 356.171 352.567 355.372C353.288 354.893 353.886 354.252 354.313 353.5C354.74 352.748 354.985 351.906 355.027 351.042C355.064 349.455 353.945 348.803 352.567 349.603Z" fill="#FAFAFA"/>
<path d="M360.476 345.028C359.756 345.506 359.158 346.147 358.73 346.899C358.303 347.651 358.058 348.493 358.016 349.357C358.016 350.944 359.135 351.596 360.476 350.796C361.197 350.318 361.795 349.676 362.222 348.924C362.649 348.172 362.894 347.331 362.936 346.467C362.973 344.88 361.854 344.228 360.476 345.028Z" fill="#FAFAFA"/>
<path d="M368.385 340.452C367.664 340.93 367.066 341.572 366.639 342.324C366.212 343.076 365.967 343.918 365.925 344.781C365.925 346.368 367.044 347.02 368.385 346.221C369.107 345.743 369.706 345.103 370.133 344.35C370.561 343.598 370.804 342.755 370.845 341.891C370.882 340.304 369.775 339.652 368.385 340.452Z" fill="#FAFAFA"/>
<path d="M376.306 335.876C375.586 336.355 374.988 336.996 374.561 337.748C374.133 338.5 373.889 339.342 373.846 340.206C373.846 341.792 374.965 342.444 376.306 341.645C377.027 341.166 377.625 340.525 378.052 339.773C378.479 339.021 378.724 338.179 378.766 337.315C378.84 335.79 377.684 335.077 376.306 335.876Z" fill="#FAFAFA"/>
<path d="M328.816 386.429C328.097 386.909 327.5 387.551 327.073 388.303C326.646 389.054 326.4 389.895 326.356 390.759C326.356 392.358 327.475 392.997 328.816 392.198C329.536 391.722 330.134 391.083 330.562 390.333C330.989 389.583 331.234 388.743 331.276 387.881C331.313 386.282 330.194 385.642 328.816 386.429Z" fill="#FAFAFA"/>
<path d="M336.737 381.854C336.016 382.332 335.418 382.972 334.99 383.725C334.563 384.477 334.319 385.319 334.277 386.183C334.277 387.782 335.384 388.422 336.737 387.622C337.458 387.146 338.056 386.507 338.483 385.757C338.91 385.007 339.155 384.167 339.197 383.305C339.234 381.706 338.115 381.066 336.737 381.854Z" fill="#FAFAFA"/>
<path d="M344.646 377.278C343.927 377.758 343.33 378.399 342.903 379.151C342.476 379.903 342.23 380.744 342.186 381.608C342.186 383.207 343.305 383.846 344.646 383.047C345.366 382.571 345.964 381.932 346.392 381.182C346.819 380.432 347.064 379.592 347.106 378.729C347.143 377.13 346.024 376.478 344.646 377.278Z" fill="#FAFAFA"/>
<path d="M352.567 372.69C351.847 373.169 351.249 373.81 350.822 374.562C350.394 375.314 350.15 376.156 350.107 377.02C350.107 378.619 351.227 379.258 352.567 378.459C353.288 377.983 353.886 377.344 354.313 376.594C354.74 375.844 354.985 375.004 355.027 374.141C355.064 372.555 353.945 371.903 352.567 372.69Z" fill="#FAFAFA"/>
<path d="M360.476 368.127C359.756 368.605 359.158 369.247 358.73 369.999C358.303 370.751 358.058 371.593 358.016 372.456C358.016 374.055 359.135 374.695 360.476 373.896C361.196 373.42 361.794 372.781 362.222 372.031C362.649 371.281 362.894 370.44 362.936 369.578C362.973 367.979 361.854 367.327 360.476 368.127Z" fill="#FAFAFA"/>
<path d="M368.385 363.551C367.664 364.03 367.066 364.671 366.639 365.423C366.212 366.175 365.967 367.017 365.925 367.881C365.925 369.48 367.044 370.119 368.385 369.32C369.108 368.844 369.708 368.204 370.136 367.451C370.563 366.698 370.806 365.855 370.845 364.99C370.882 363.404 369.775 362.752 368.385 363.551Z" fill="#FAFAFA"/>
<path d="M376.306 358.976C375.586 359.454 374.988 360.095 374.561 360.847C374.133 361.599 373.889 362.441 373.846 363.305C373.846 364.904 374.965 365.544 376.306 364.744C377.027 364.266 377.626 363.625 378.053 362.873C378.481 362.121 378.725 361.279 378.766 360.415C378.84 358.828 377.684 358.176 376.306 358.976Z" fill="#FAFAFA"/>
<path d="M487.314 410.98C483.063 411.009 478.881 409.905 475.198 407.782C466.33 402.653 461.25 391.952 461.25 378.385C461.25 354.547 476.404 327.131 495.69 315.962C506.108 309.948 516.452 309.296 524.829 314.13C533.685 319.246 538.777 329.96 538.777 343.514C538.777 367.352 523.623 394.781 504.275 405.949C499.158 409.08 493.31 410.814 487.314 410.98ZM512.726 328.102C509.731 328.314 506.837 329.265 504.3 330.87C490.278 338.926 478.47 360.71 478.47 378.385C478.47 385.543 480.475 390.98 483.833 392.911C487.658 395.125 492.984 392.714 495.801 391.078C509.86 382.973 521.717 361.189 521.717 343.514C521.717 336.356 519.712 330.931 516.354 328.988C515.247 328.369 513.993 328.063 512.726 328.102Z" fill="#455A64"/>
<path d="M524.73 347.327C524.73 333.933 516.293 328.988 516.293 328.988C519.651 330.931 521.655 336.368 521.655 343.514C521.655 361.189 509.798 382.973 495.739 391.078C492.923 392.714 487.609 395.125 483.771 392.911C483.771 392.911 490.893 397.339 500.733 391.964C514.977 384.203 524.73 365.002 524.73 347.327Z" fill="#37474F"/>
<path d="M511.2 179.937C511.115 177.64 510.142 175.466 508.487 173.872C506.832 172.277 504.624 171.386 502.326 171.386C500.028 171.386 497.819 172.277 496.164 173.872C494.509 175.466 493.537 177.64 493.451 179.937V321.03C493.515 321.821 493.789 322.58 494.245 323.229C494.702 323.878 495.324 324.393 496.046 324.72C497.992 325.703 500.14 326.215 502.319 326.215C504.499 326.215 506.647 325.703 508.592 324.72C509.318 324.396 509.944 323.882 510.402 323.233C510.861 322.583 511.137 321.822 511.2 321.03V179.961V179.937Z" fill="#37474F"/>
<path d="M504.115 211.474C504.018 209.695 503.503 207.964 502.612 206.421C501.721 204.878 500.479 203.567 498.986 202.593C498.46 202.207 497.837 201.973 497.186 201.917C496.535 201.86 495.882 201.984 495.296 202.273L473.427 214.881L472.898 215.188C472.818 215.222 472.743 215.267 472.677 215.324C472.304 215.576 471.954 215.86 471.631 216.172C470.398 217.402 469.648 219.034 469.518 220.771C469.388 222.508 469.887 224.233 470.924 225.632C471.961 227.032 473.466 228.011 475.165 228.393C476.865 228.774 478.644 228.532 480.18 227.71L480.598 227.464L502.627 214.783C503.146 214.412 503.557 213.91 503.818 213.329C504.079 212.748 504.182 212.108 504.115 211.474Z" fill="#455A64"/>
<path d="M504.116 246.799C504.017 245.022 503.501 243.294 502.61 241.753C501.719 240.212 500.477 238.903 498.987 237.931C498.462 237.541 497.84 237.303 497.188 237.244C496.537 237.186 495.882 237.308 495.297 237.599L469.639 252.359L469.11 252.667C469.03 252.701 468.956 252.747 468.889 252.802C468.514 253.05 468.163 253.335 467.843 253.651C467.042 254.448 466.438 255.421 466.078 256.493C465.718 257.565 465.613 258.706 465.77 259.825C465.928 260.945 466.344 262.012 466.985 262.943C467.627 263.874 468.476 264.642 469.467 265.188C470.535 265.755 471.726 266.05 472.935 266.049C474.141 266.055 475.329 265.759 476.392 265.188C476.539 265.114 476.674 265.016 476.81 264.942L502.64 250.182C503.168 249.804 503.584 249.289 503.844 248.694C504.103 248.099 504.197 247.444 504.116 246.799Z" fill="#455A64"/>
</svg>
